<svg width="45" height="54" viewBox="0 0 45 54" fill="none" xmlns="http://www.w3.org/2000/svg">
<path d="M42.3076 22.3722C42.3076 38.0429 22.1595 51.4749 22.1595 51.4749C22.1595 51.4749 2.01151 38.0429 2.01151 22.3722C2.01151 17.0286 4.13424 11.9038 7.91273 8.12535C11.6912 4.34685 16.816 2.22412 22.1595 2.22412C27.5031 2.22412 32.6279 4.34685 36.4064 8.12535C40.1849 11.9038 42.3076 17.0286 42.3076 22.3722Z" stroke="#FBC702" stroke-width="4" stroke-linecap="round" stroke-linejoin="round"/>
<path d="M22.1595 29.0883C25.8686 29.0883 28.8755 26.0814 28.8755 22.3723C28.8755 18.6631 25.8686 15.6562 22.1595 15.6562C18.4503 15.6562 15.4435 18.6631 15.4435 22.3723C15.4435 26.0814 18.4503 29.0883 22.1595 29.0883Z" stroke="#FBC702" stroke-width="4" stroke-linecap="round" stroke-linejoin="round"/>
</svg>
