<svg width="52" height="53" viewBox="0 0 52 53" fill="none" xmlns="http://www.w3.org/2000/svg">
<path d="M51.8629 24.6761C51.9528 24.5321 52.0003 24.3658 52 24.1961V10.6646C52.0008 10.0524 51.785 9.45966 51.3909 8.9912C50.9967 8.52273 50.4496 8.20875 49.8463 8.10478C49.243 8.00081 48.6224 8.11354 48.0941 8.42305C47.5659 8.73256 47.1642 9.2189 46.96 9.79605H42.4686C42.2413 9.79625 42.0235 9.88669 41.8629 10.0475C41.7803 10.1278 41.7146 10.2237 41.6694 10.3297C41.6243 10.4356 41.6007 10.5495 41.6 10.6646V21.0646C41.5994 21.18 41.6224 21.2942 41.6676 21.4004C41.7128 21.5065 41.7793 21.6023 41.8629 21.6818C42.0235 21.8426 42.2413 21.933 42.4686 21.9332H46.8571V22.8818L45.2686 25.2589C45.1787 25.4028 45.1311 25.5692 45.1314 25.7389V28.0246H40.6743L39.8629 17.556C39.8495 17.3925 39.7944 17.2351 39.7029 17.0989L37.2229 13.8075L36.3886 8.81319C36.3557 8.61037 36.2511 8.4261 36.0938 8.29395C35.9364 8.16179 35.7369 8.09055 35.5314 8.09319H32.1029C31.8974 8.09055 31.6978 8.16179 31.5405 8.29395C31.3832 8.4261 31.2786 8.61037 31.2457 8.81319L30.4229 13.8075L27.9429 17.0989C27.8432 17.2318 27.7837 17.3904 27.7714 17.556L26.9714 28.0246H26.0343C25.9109 28.0257 25.7892 28.0528 25.677 28.1039C25.5648 28.1551 25.4646 28.2293 25.3829 28.3218C25.3002 28.4162 25.2391 28.5274 25.2036 28.6478C25.1681 28.7681 25.159 28.8947 25.1771 29.0189L26.0914 34.9618H23.4057V20.1961C23.3997 18.5884 22.7584 17.0483 21.6216 15.9116C20.4848 14.7748 18.9448 14.1335 17.3371 14.1275V11.5332C17.3341 10.843 17.0586 10.182 16.5706 9.694C16.0826 9.20598 15.4216 8.93049 14.7314 8.92748V5.49891H16.8686L18.7886 7.40748C19.2948 7.91366 19.9813 8.19803 20.6971 8.19803C21.413 8.19803 22.0995 7.91366 22.6057 7.40748C23.1119 6.90129 23.3963 6.21476 23.3963 5.49891C23.3963 4.78305 23.1119 4.09652 22.6057 3.59034L20.5714 1.53319C19.764 0.727524 18.672 0.271851 17.5314 0.264622H6.93714C6.47414 0.255848 6.01736 0.372269 5.61504 0.60159C5.21273 0.830911 4.8798 1.16462 4.65143 1.56748C4.42147 1.96109 4.30029 2.40876 4.30029 2.86462C4.30029 3.32048 4.42147 3.76815 4.65143 4.16176C4.8798 4.56462 5.21273 4.89833 5.61504 5.12765C6.01736 5.35697 6.47414 5.4734 6.93714 5.46462H8.66286V8.89319C8.32389 8.90032 7.98973 8.97472 7.67975 9.11205C7.36977 9.24938 7.09016 9.44692 6.85714 9.69319C6.36817 10.1808 6.09276 10.8426 6.09143 11.5332V14.1275C4.47983 14.1275 2.93391 14.7661 1.7922 15.9035C0.65049 17.041 0.00604726 18.5845 1.22143e-10 20.1961L1.22143e-10 49.6703C-3.31502e-06 50.012 0.0674767 50.3503 0.198566 50.6658C0.329655 50.9813 0.521771 51.2678 0.763885 51.5088C1.006 51.7499 1.29334 51.9407 1.60941 52.0704C1.92549 52.2001 2.26407 52.2661 2.60571 52.2646H46.1714C46.7781 52.2798 47.37 52.0771 47.84 51.6932C48.3104 51.3037 48.6298 50.7619 48.7429 50.1618L52 28.996C52.0181 28.8719 52.0091 28.7453 51.9736 28.6249C51.9381 28.5046 51.8769 28.3934 51.7943 28.2989C51.7126 28.2065 51.6124 28.1323 51.5002 28.0811C51.3879 28.0299 51.2662 28.0029 51.1429 28.0018H50.2857V27.0532L51.8629 24.6761ZM46.8571 16.7332H43.4286V14.9961H46.8571V16.7332ZM46.8571 11.5332V13.2703H43.4286V11.5332H46.8571ZM43.4286 20.1961V18.4703H46.8571V20.1961H43.4286ZM34.8914 9.79605L35.4743 13.2246H32.2286L32.8 9.79605H34.8914ZM31.7257 14.9961H36.0571L37.36 16.7332H30.3314L31.7257 14.9961ZM29.4971 18.4246H38.2971L39.0286 27.956H28.7429L29.4971 18.4246ZM6.06857 2.87034C6.06857 2.63998 6.16008 2.41905 6.32297 2.25616C6.48586 2.09327 6.70678 2.00176 6.93714 2.00176H17.5314C17.8819 1.99525 18.2301 2.05859 18.5559 2.1881C18.8816 2.3176 19.1783 2.51067 19.4286 2.75605L21.3829 4.83605C21.5474 5.02123 21.635 5.2623 21.6277 5.50994C21.6205 5.75758 21.5188 5.99308 21.3436 6.16826C21.1685 6.34345 20.933 6.44508 20.6853 6.45237C20.4377 6.45966 20.1966 6.37205 20.0114 6.20748L17.84 4.04748C17.7714 3.94743 17.6815 3.86378 17.5768 3.80253C17.4721 3.74128 17.3551 3.70395 17.2343 3.69319H6.94857C6.72018 3.69321 6.50097 3.60327 6.3384 3.44285C6.17584 3.28242 6.08301 3.06442 6.08 2.83605L6.06857 2.87034ZM10.4 5.46462H13.0057V8.89319H10.4V5.46462ZM7.80571 11.5332C7.80569 11.3048 7.89563 11.0856 8.05606 10.923C8.21649 10.7605 8.43448 10.6676 8.66286 10.6646H14.7314C14.9618 10.6646 15.1827 10.7561 15.3456 10.919C15.5085 11.0819 15.6 11.3028 15.6 11.5332V14.1275H7.80571V11.5332ZM1.73714 49.6703V20.1961C1.73714 19.0473 2.19349 17.9456 3.00579 17.1333C3.81809 16.321 4.91981 15.8646 6.06857 15.8646H17.3371C17.9098 15.8586 18.478 15.9662 19.0088 16.1811C19.5396 16.3961 20.0225 16.7142 20.4295 17.117C20.8366 17.5198 21.1597 17.9993 21.3803 18.5279C21.6008 19.0564 21.7143 19.6234 21.7143 20.1961V34.9389H19.0743V23.6703C19.0584 22.9783 18.7759 22.3191 18.2857 21.8303C17.7981 21.3414 17.1363 21.066 16.4457 21.0646H6.93714C6.24699 21.0676 5.58596 21.3431 5.09795 21.8311C4.60993 22.3192 4.33444 22.9802 4.33143 23.6703V42.7332C4.33444 43.4233 4.60993 44.0844 5.09795 44.5724C5.58596 45.0604 6.24699 45.3359 6.93714 45.3389H13.0057V47.9332C13.0006 48.879 13.3102 49.7997 13.8857 50.5503H2.60571C2.37536 50.5503 2.15443 50.4588 1.99154 50.2959C1.82865 50.133 1.73714 49.9121 1.73714 49.6818V49.6703ZM13.0057 39.2703V43.6018H6.93714C6.70678 43.6018 6.48586 43.5103 6.32297 43.3474C6.16008 43.1845 6.06857 42.9636 6.06857 42.7332V23.6703C6.06857 23.44 6.16008 23.2191 6.32297 23.0562C6.48586 22.8933 6.70678 22.8018 6.93714 22.8018H16.4686C16.6989 22.8018 16.9199 22.8933 17.0827 23.0562C17.2456 23.2191 17.3371 23.44 17.3371 23.6703V34.9389C16.1884 34.9389 15.0867 35.3953 14.2744 36.2076C13.4621 37.0199 13.0057 38.1216 13.0057 39.2703ZM17.3371 50.5503C16.647 50.5473 15.986 50.2718 15.4979 49.7838C15.0099 49.2958 14.7344 48.6348 14.7314 47.9446V39.2703C14.7344 38.5802 15.0099 37.9192 15.4979 37.4311C15.986 36.9431 16.647 36.6676 17.3371 36.6646H32.9371C33.6277 36.666 34.2895 36.9414 34.7771 37.4303C35.2588 37.9219 35.5294 38.5821 35.5314 39.2703V47.9332C35.5345 48.2758 35.4696 48.6156 35.3406 48.933C35.2115 49.2504 35.0209 49.5391 34.7797 49.7824C34.5385 50.0257 34.2515 50.2189 33.9352 50.3507C33.619 50.4825 33.2798 50.5503 32.9371 50.5503H17.3371ZM47.0514 49.8989C47.0085 50.0912 46.8989 50.2621 46.742 50.3814C46.5851 50.5006 46.3911 50.5605 46.1943 50.5503H36.3771C36.9583 49.8064 37.2723 48.8886 37.2686 47.9446V39.2703C37.2686 38.1216 36.8122 37.0199 35.9999 36.2076C35.1876 35.3953 34.0859 34.9389 32.9371 34.9389H27.8171L27.0171 29.7389H50.1257L47.0514 49.8989ZM46.8571 28.0018V26.0018L48.4457 23.6246C48.5441 23.484 48.596 23.3162 48.5943 23.1446V10.6646C48.6389 10.4738 48.7468 10.3037 48.9003 10.182C49.0539 10.0603 49.2441 9.994 49.44 9.994C49.6359 9.994 49.8261 10.0603 49.9797 10.182C50.1332 10.3037 50.2411 10.4738 50.2857 10.6646V23.9332L48.6857 26.3103C48.5923 26.4533 48.5409 26.6196 48.5371 26.7903V28.0018H46.8571ZM32.0686 39.2703H18.2057C18.0912 39.2688 17.9776 39.2902 17.8715 39.3333C17.7654 39.3764 17.6691 39.4403 17.5881 39.5213C17.5072 39.6023 17.4432 39.6986 17.4001 39.8047C17.357 39.9108 17.3356 40.0244 17.3371 40.1389V47.1218C17.3364 47.2361 17.3582 47.3495 17.4013 47.4554C17.4445 47.5613 17.5081 47.6577 17.5886 47.7389C17.7534 47.9004 17.975 47.9907 18.2057 47.9903H32.0686C32.2993 47.9907 32.5209 47.9004 32.6857 47.7389C32.7662 47.6577 32.8298 47.5613 32.873 47.4554C32.9161 47.3495 32.9379 47.2361 32.9371 47.1218V40.1389C32.9387 40.0244 32.9173 39.9108 32.8742 39.8047C32.8311 39.6986 32.7671 39.6023 32.6862 39.5213C32.6052 39.4403 32.5088 39.3764 32.4028 39.3333C32.2967 39.2902 32.1831 39.2688 32.0686 39.2703ZM31.2 46.2075H19.0743V41.0075H31.2V46.2075Z" fill="black"/>
</svg>
