<svg width="56" height="41" viewBox="0 0 56 41" fill="none" xmlns="http://www.w3.org/2000/svg">
<path d="M49.07 1.09465L48.77 0.264648L47.91 0.454648C27.2 4.90465 7.78 0.494648 7.59 0.454648L6.79 0.264648L6.45 1.02465C1.59 11.9246 0.1 24.3346 0 24.8546V25.2646L0.22 25.5746C5 32.2646 19.81 40.0946 20.44 40.4246L20.66 40.5346H35.14L35.37 40.4046C42.459 36.2103 49.0857 31.2797 55.14 25.6946L55.45 25.3946V24.9746C55.45 19.2646 49.33 1.83465 49.07 1.09465ZM53.35 24.6246C51.25 24.1846 43.59 22.8846 38.5 26.3146C35.3 28.4846 34.19 32.0746 33.86 34.9946C27.86 33.1046 23.86 33.9946 21.91 34.7846C21.49 31.4946 20 27.4246 15.48 25.5346C11.2682 23.6706 6.5421 23.3174 2.1 24.5346C2.98838 18.2575 4.48543 12.0818 6.57 6.09465C14.3744 7.04628 22.2278 7.54046 30.09 7.57465C36.3103 7.64016 42.5242 7.1583 48.66 6.13465C50.44 11.5646 53.24 20.5946 53.44 24.5446L53.35 24.6246ZM22.06 36.9146C23.24 36.3147 27.14 34.8546 33.74 37.0546C33.74 37.6246 33.74 38.1246 33.74 38.5346H22C22.0481 37.9961 22.0681 37.4553 22.06 36.9146ZM39.62 27.9746C43.22 25.5446 48.62 25.9046 51.44 26.3246C46.547 30.6053 41.3018 34.4656 35.76 37.8646C35.68 35.3546 36 30.4046 39.62 27.9746ZM8 2.57465C11.89 3.35465 29.1 6.34465 47.51 2.57465L48 4.26465C32.69 6.95465 12.48 4.79465 7.3 4.16465C7.51333 3.63798 7.74667 3.10798 8 2.57465ZM3.43 26.2646C7.21487 25.4539 11.1585 25.8455 14.71 27.3846C19.9 29.5546 20.22 35.2646 20.06 37.9446C16.76 36.1146 8 31.0346 3.43 26.2646Z" fill="black"/>
</svg>
