<svg width="56" height="47" viewBox="0 0 56 47" fill="none" xmlns="http://www.w3.org/2000/svg">
<path d="M47 30.8346C43 29.2246 42.35 28.0146 42.35 28.0146L36.35 11.9446C36.2519 10.7007 36.0377 9.46866 35.71 8.26464C35.4387 7.79099 35.0532 7.39279 34.5886 7.10633C34.124 6.81987 33.595 6.65428 33.05 6.62464C31.65 6.42464 28.94 6.62464 26.15 10.1246C22.15 8.12464 22.68 1.79464 22.69 1.73464L22.76 0.90464L22 0.67464C13.41 -1.73536 7.14001 7.26464 5.79001 9.42464C5.4526 9.4736 5.11861 9.54374 4.79001 9.63464C3.33338 9.9811 2.03448 10.8048 1.10001 11.9746C0.617878 12.6427 0.279999 13.4038 0.107843 14.2095C-0.064313 15.0152 -0.0669819 15.8479 0.100006 16.6546C0.1875 17.2507 0.380518 17.8263 0.670006 18.3546C1.12235 19.0822 1.65944 19.7536 2.27001 20.3546L2.63001 20.7346C3.31001 21.4646 4.02001 22.1646 4.73001 22.8046C6.56021 24.4498 8.57342 25.8792 10.73 27.0646C11.35 27.4146 11.99 27.7446 12.62 28.0646C13.62 28.5646 14.5 29.0646 15.38 29.5746C16.6312 30.3182 17.6898 31.3459 18.47 32.5746C18.73 33.0046 19 33.4446 19.26 33.8946C22.34 38.9746 26.18 45.3746 38 46.2646C38.76 46.3146 39.49 46.3446 40.2 46.3446C51.13 46.3446 55.63 39.9646 55.95 37.5846C56.26 35.4846 53.66 33.5346 47 30.8346ZM54 37.2646C53.9406 37.5432 53.8359 37.8101 53.69 38.0546C51.69 40.0546 41 40.2546 35.16 38.8846C32.4798 38.1041 30.1694 36.3864 28.65 34.0446C30.219 34.627 31.8683 34.9643 33.54 35.0446C33.7564 35.0599 33.9736 35.0599 34.19 35.0446C35.406 34.8577 36.5082 34.2228 37.28 33.2646C38.42 32.1246 39.61 30.9346 43.16 31.2646C44.1508 31.8293 45.18 32.3239 46.24 32.7446C54.1 35.8746 54 37.2646 54 37.2646ZM16.5 14.2646C17.3422 15.1183 18.3683 15.7681 19.5 16.1646C20.5195 16.3718 21.5619 16.4424 22.6 16.3746C24.35 16.3746 26.53 16.3246 27.14 17.2046C28.29 18.8546 28.29 19.2746 28.32 23.3146V24.0946C28.2809 27.017 28.9681 29.9034 30.32 32.4946C29.0997 32.1277 27.9039 31.6834 26.74 31.1646C26.46 30.6846 26.21 30.2646 25.99 29.9446C24.17 27.2646 18.44 22.3946 14 18.8246L13.44 18.3546C14.0853 17.8696 14.6636 17.3013 15.16 16.6646C15.7076 15.9253 16.158 15.1187 16.5 14.2646ZM32.31 8.56464C32.8469 8.54028 33.3782 8.68357 33.83 8.97464C34.0711 9.82097 34.2318 10.6881 34.31 11.5646C33.31 11.9546 31.53 12.0446 28.1 10.8846C29.9 8.89464 31.48 8.56464 32.31 8.56464ZM19.14 2.26464C19.6498 2.26749 20.1583 2.31433 20.66 2.40464C20.66 4.61464 21.08 10.3146 25.86 12.1846C29.93 13.7746 32.71 14.1846 34.86 13.4946L35.49 15.2646C34.2443 15.3359 33.0215 15.6306 31.88 16.1346C31.7297 16.2102 31.6092 16.3341 31.5379 16.4864C31.4665 16.6387 31.4484 16.8106 31.4865 16.9744C31.5245 17.1383 31.6166 17.2846 31.7478 17.3898C31.879 17.495 32.0418 17.5531 32.21 17.5546C32.3238 17.5557 32.4364 17.5318 32.54 17.4846C33.6444 17.0044 34.8357 16.7559 36.04 16.7546L36.76 18.6946C35.5738 18.7902 34.4116 19.0808 33.32 19.5546C33.169 19.6306 33.0481 19.7554 32.9768 19.9087C32.9056 20.062 32.8883 20.2349 32.9277 20.3993C32.967 20.5637 33.0608 20.71 33.1937 20.8144C33.3266 20.9188 33.491 20.9753 33.66 20.9746C33.7707 20.9766 33.8803 20.9526 33.98 20.9046C35.0334 20.4514 36.1636 20.2036 37.31 20.1746L37.93 21.8446C36.6354 21.8964 35.3625 22.1951 34.18 22.7246C34.0297 22.8002 33.9092 22.9241 33.8379 23.0764C33.7665 23.2287 33.7484 23.4006 33.7865 23.5644C33.8245 23.7283 33.9166 23.8746 34.0478 23.9798C34.179 24.085 34.3418 24.1431 34.51 24.1446C34.6207 24.1466 34.7303 24.1226 34.83 24.0746C35.9816 23.5675 37.2323 23.3248 38.49 23.3646L39.2 25.2646C37.7458 25.2561 36.3055 25.5489 34.97 26.1246C34.8157 26.1964 34.6903 26.3186 34.6146 26.4711C34.5389 26.6235 34.5173 26.7972 34.5534 26.9636C34.5894 27.1299 34.681 27.2791 34.8131 27.3865C34.9451 27.4939 35.1098 27.5532 35.28 27.5546C35.3862 27.5542 35.4913 27.5338 35.59 27.4946C36.9027 26.9156 38.3415 26.6815 39.77 26.8146L40.45 28.6346C40.5194 28.8494 40.6279 29.0494 40.77 29.2246C38.8662 29.4408 37.1134 30.3654 35.86 31.8146C35.11 32.5646 34.69 32.9646 33.98 33.0446H33.48C31.99 32.2346 30.41 28.5146 30.37 24.0446V23.2646C30.37 19.0646 30.37 18.1946 28.83 16.0346C27.6 14.3346 25 14.3646 22.61 14.4046C21.7674 14.4507 20.9223 14.4038 20.09 14.2646C18.948 13.7916 17.9413 13.0425 17.16 12.0846C17.212 11.8203 17.2488 11.5532 17.27 11.2846C17.46 8.82464 16.55 6.21464 14.58 3.51464C15.9719 2.72392 17.5395 2.2942 19.14 2.26464ZM12.89 4.60464C14.63 6.94464 15.43 9.13464 15.27 11.1446C15.1169 12.7128 14.5125 14.2029 13.53 15.4346C13.0612 16.0449 12.4933 16.5723 11.85 16.9946C9.88202 15.2587 8.35647 13.0783 7.40001 10.6346C8.8628 8.31868 10.721 6.27766 12.89 4.60464ZM38.19 44.2646C27.36 43.4546 24 37.7946 21 32.8046C20.73 32.3446 20.46 31.9046 20.19 31.4646C19.2414 29.9866 17.9607 28.7504 16.45 27.8546C15.45 27.2646 14.51 26.7546 13.55 26.2646C12.9433 25.958 12.3333 25.6246 11.72 25.2646C9.70235 24.1467 7.81712 22.8049 6.10001 21.2646C5.43001 20.6546 4.77001 20.0046 4.10001 19.2646L3.72001 18.8746C3.22623 18.3971 2.78994 17.8635 2.42001 17.2846C2.2529 16.9721 2.13805 16.6343 2.08001 16.2846C1.96447 15.7454 1.96168 15.1881 2.07182 14.6477C2.18196 14.1074 2.40264 13.5956 2.72001 13.1446C3.39692 12.3504 4.31242 11.7962 5.33001 11.5646L5.59001 11.5146C6.17001 13.1346 7.87001 16.5146 12.71 20.3846C18.9 25.3146 23 29.0946 24.34 31.0446C24.54 31.3446 24.77 31.7346 25.04 32.1746C26.6 34.7846 29.51 39.6446 34.71 40.8646C37.8785 41.5128 41.106 41.8278 44.34 41.8046C46.512 41.8246 48.6812 41.6438 50.82 41.2646C48.41 43.0846 44.44 44.6946 38.19 44.2646Z" fill="black"/>
</svg>
