<svg width="50" height="38" viewBox="0 0 50 38" fill="none" xmlns="http://www.w3.org/2000/svg">
<path d="M50 9.29605V5.16364C50 4.5203 49.8693 3.88325 49.6153 3.28888C49.3613 2.69451 48.9889 2.15445 48.5196 1.69953C48.0503 1.24462 47.4931 0.88376 46.8799 0.637562C46.2666 0.391365 45.6094 0.264648 44.9456 0.264648L5.05438 0.264648C3.71387 0.264648 2.42827 0.780791 1.48039 1.69953C0.532513 2.61827 0 3.86435 0 5.16364L0 9.29605C0.0037073 10.0009 0.164664 10.6966 0.471828 11.3354C0.778992 11.9743 1.2251 12.5412 1.77954 12.9972C1.2251 13.4533 0.778992 14.0202 0.471828 14.6591C0.164664 15.2979 0.0037073 15.9936 0 16.6984L0 20.8309C0.0037073 21.5357 0.164664 22.2314 0.471828 22.8702C0.778992 23.5091 1.2251 24.076 1.77954 24.532C1.2251 24.9881 0.778992 25.555 0.471828 26.1939C0.164664 26.8327 0.0037073 27.5284 0 28.2332L0 32.3776C0.00327229 33.6748 0.53723 34.9179 1.48475 35.834C2.43228 36.7502 3.71601 37.2647 5.05438 37.2646H44.9456C46.284 37.2647 47.5677 36.7502 48.5152 35.834C49.4628 34.9179 49.9967 33.6748 50 32.3776V28.2332C49.9933 27.5266 49.8285 26.8297 49.517 26.1907C49.2055 25.5517 48.7547 24.9858 48.1958 24.532C48.7502 24.076 49.1963 23.5091 49.5035 22.8702C49.8106 22.2314 49.9716 21.5357 49.9753 20.8309V16.6984C49.9716 15.9936 49.8106 15.2979 49.5035 14.6591C49.1963 14.0202 48.7502 13.4533 48.1958 12.9972C48.7547 12.5435 49.2055 11.9776 49.517 11.3386C49.8285 10.6996 49.9933 10.0027 50 9.29605ZM9.63915 24.1368L7.51359 2.66025H29.2264L9.63915 24.1368ZM2.47158 9.29605V5.16364C2.47474 4.50478 2.7445 3.87342 3.22285 3.4053C3.7012 2.93717 4.34996 2.66965 5.02966 2.66025L5.93178 11.7994H5.05438C4.37038 11.7963 3.71532 11.5315 3.23165 11.0627C2.74799 10.5939 2.47483 9.95902 2.47158 9.29605ZM2.47158 20.8309V16.6984C2.47483 16.0355 2.74799 15.4006 3.23165 14.9318C3.71532 14.463 4.37038 14.1982 5.05438 14.195H6.17894L7.09343 23.3342H5.05438C4.36937 23.3342 3.71243 23.0705 3.22806 22.601C2.74369 22.1315 2.47158 21.4948 2.47158 20.8309ZM47.5284 28.2332V32.3776C47.5252 33.0395 47.2516 33.6732 46.7676 34.1401C46.2836 34.607 45.6285 34.8691 44.9456 34.869H5.05438C4.37151 34.8691 3.71643 34.607 3.23242 34.1401C2.7484 33.6732 2.47484 33.0395 2.47158 32.3776V28.2332C2.47483 27.5703 2.74799 26.9354 3.23165 26.4666C3.71532 25.9978 4.37038 25.733 5.05438 25.7298H7.31587L7.72368 29.8503L11.431 25.7298H44.9456C45.6296 25.733 46.2847 25.9978 46.7683 26.4666C47.252 26.9354 47.5252 27.5703 47.5284 28.2332ZM47.5284 16.6984V20.8309C47.5284 21.4948 47.2563 22.1315 46.7719 22.601C46.2876 23.0705 45.6306 23.3342 44.9456 23.3342H13.6678L22.0094 14.195H44.9456C45.6296 14.1982 46.2847 14.463 46.7683 14.9318C47.252 15.4006 47.5252 16.0355 47.5284 16.6984ZM24.1844 11.7994L32.526 2.66025H44.8838C45.5678 2.6634 46.2229 2.92816 46.7066 3.39695C47.1902 3.86575 47.4634 4.50067 47.4666 5.16364V9.29605C47.4634 9.95902 47.1902 10.5939 46.7066 11.0627C46.2229 11.5315 45.5678 11.7963 44.8838 11.7994H24.1844Z" fill="black"/>
</svg>
