<svg width="39" height="50" viewBox="0 0 39 50" fill="none" xmlns="http://www.w3.org/2000/svg">
<g clip-path="url(#clip0_4_2007)">
<path d="M8.67665 8.85959C8.82642 10.2041 9.83487 12.7338 12.5906 12.7338C13.1841 12.7798 13.7807 12.7057 14.3446 12.5157C14.9086 12.3258 15.4282 12.0241 15.8721 11.6286C16.3161 11.2332 16.6754 10.7523 16.9282 10.2148C17.181 9.67733 17.3222 9.09439 17.3433 8.50105V2.46569C17.3433 2.41022 17.3654 2.35702 17.4047 2.3178C17.4441 2.27858 17.4974 2.25654 17.553 2.25654H20.2189C20.2745 2.25654 20.3278 2.27858 20.3672 2.3178C20.4065 2.35702 20.4286 2.41022 20.4286 2.46569V14.2078V14.4069C20.4286 14.5464 21.1175 17.574 23.5737 18.5301V20.1137H25.5707V16.8868L24.732 16.7474C23.1344 16.4885 22.5154 14.4767 22.3955 14.0385V2.46569C22.3956 1.88708 22.1672 1.33173 21.7599 0.919803C21.3525 0.50788 20.7989 0.272525 20.2189 0.264671H17.553C16.9678 0.264671 16.4065 0.496563 15.9927 0.909334C15.5789 1.3221 15.3464 1.88194 15.3464 2.46569V8.50105C15.3192 8.83111 15.2256 9.1523 15.071 9.44537C14.9164 9.73845 14.7041 9.99737 14.4467 10.2066C14.1894 10.4159 13.8924 10.5711 13.5734 10.6631C13.2545 10.7551 12.9202 10.7819 12.5906 10.7419C11.053 10.7419 10.7235 9.03886 10.6736 8.68032V2.46569C10.671 1.88275 10.4376 1.32443 10.0244 0.912228C9.61113 0.500024 9.05139 0.267291 8.46697 0.264671H5.47158C5.18097 0.263359 4.89296 0.319322 4.62408 0.429346C4.35521 0.53937 4.11078 0.701288 3.90482 0.905802C3.69886 1.11032 3.53543 1.3534 3.42391 1.62109C3.31239 1.88878 3.25499 2.17581 3.25499 2.46569V13.9389C3.3149 15.9307 0.668971 16.9267 0.649001 16.9267L0 17.1956V37.7815H8.91628V35.7897H1.99693V18.5301C3.12519 17.9525 5.3318 16.4785 5.25192 13.909V2.46569C5.25192 2.41022 5.27401 2.35702 5.31333 2.3178C5.35265 2.27858 5.40599 2.25654 5.4616 2.25654H8.45699C8.5126 2.25654 8.56593 2.27858 8.60525 2.3178C8.64458 2.35702 8.66667 2.41022 8.66667 2.46569V8.85959H8.67665Z" fill="black"/>
<path d="M35.7849 26.388C36.0775 25.9555 36.234 25.4457 36.2342 24.924C36.2316 24.2178 35.9485 23.5415 35.447 23.0431C34.9454 22.5447 34.2663 22.2648 33.5584 22.2648H15.6859C15.3328 22.2609 14.9824 22.3267 14.6549 22.4584C14.3275 22.5902 14.0294 22.7852 13.7779 23.0324C13.5263 23.2796 13.3263 23.574 13.1894 23.8987C13.0525 24.2233 12.9813 24.5718 12.98 24.924C12.9736 25.2977 13.0468 25.6685 13.1948 26.0119C13.3429 26.3553 13.5623 26.6634 13.8387 26.9158L10.1444 43.0101L22.3356 49.2646L24.6121 44.1455L27.4078 49.2646L39 42.562L35.7849 26.388ZM36.394 41.7752L31.5015 27.5931H33.5584C33.698 27.6028 33.8381 27.6028 33.9777 27.5931L36.7634 41.5959L36.394 41.7752ZM15.6859 24.2567H33.5584C33.6537 24.2451 33.7505 24.2538 33.8423 24.2823C33.934 24.3108 34.0187 24.3584 34.0906 24.4219C34.1626 24.4855 34.2202 24.5635 34.2596 24.6509C34.2991 24.7383 34.3195 24.8331 34.3195 24.9289C34.3195 25.0248 34.2991 25.1196 34.2596 25.207C34.2202 25.2944 34.1626 25.3724 34.0906 25.436C34.0187 25.4995 33.934 25.5471 33.8423 25.5756C33.7505 25.6041 33.6537 25.6128 33.5584 25.6012H15.6859C15.5905 25.6128 15.4937 25.6041 15.4019 25.5756C15.3102 25.5471 15.2255 25.4995 15.1536 25.436C15.0816 25.3724 15.024 25.2944 14.9846 25.207C14.9451 25.1196 14.9247 25.0248 14.9247 24.9289C14.9247 24.8331 14.9451 24.7383 14.9846 24.6509C15.024 24.5635 15.0816 24.4855 15.1536 24.4219C15.2255 24.3584 15.3102 24.3108 15.4019 24.2823C15.4937 24.2538 15.5905 24.2451 15.6859 24.2567ZM15.7557 27.5931H17.7527L12.7903 42.0939L12.4608 41.9246L15.7557 27.5931ZM24.4324 39.6538L21.3671 46.5258L14.5875 43.0101L19.9094 27.5931H29.3948L34.6267 42.791L28.1766 46.5158L24.4324 39.6538Z" fill="black"/>
</g>
<defs>
<clipPath id="clip0_4_2007">
<rect width="39" height="49" fill="white" transform="translate(0 0.264648)"/>
</clipPath>
</defs>
</svg>
