<svg width="53" height="49" viewBox="0 0 53 49" fill="none" xmlns="http://www.w3.org/2000/svg">
<g clip-path="url(#clip0_8_2020)">
<path d="M13.59 30.2647C13.5521 29.7226 13.3103 29.215 12.9133 28.8439C12.5163 28.4729 11.9934 28.2659 11.45 28.2647V26.5047C11.4513 26.3529 11.4226 26.2022 11.3654 26.0616C11.3082 25.9209 11.2237 25.7929 11.1167 25.6851C11.0098 25.5772 10.8826 25.4916 10.7424 25.4332C10.6022 25.3748 10.4519 25.3447 10.3 25.3447H5.60001C5.29236 25.3447 4.99731 25.4669 4.77977 25.6845C4.56223 25.902 4.44001 26.1971 4.44001 26.5047V28.2647C3.89589 28.2636 3.37176 28.4697 2.97423 28.8412C2.57669 29.2128 2.33561 29.7218 2.30001 30.2647L0.920013 48.7547H14.78L13.59 30.2647ZM6.23001 26.6647H9.66001C9.65824 27.0151 9.54891 27.3564 9.34681 27.6426C9.1447 27.9287 8.85958 28.1459 8.53001 28.2647H7.37001C7.03937 28.1463 6.7529 27.9295 6.5491 27.6435C6.34531 27.3575 6.23395 27.0159 6.23001 26.6647ZM4.43001 30.2647H11.43C11.4479 30.2633 11.4659 30.2657 11.4828 30.2716C11.4998 30.2775 11.5153 30.2869 11.5285 30.2991C11.5416 30.3113 11.5521 30.3261 11.5593 30.3426C11.5664 30.359 11.5701 30.3768 11.57 30.3947L11.65 31.6347H4.20001L4.29001 30.3947C4.28996 30.3768 4.29362 30.359 4.30077 30.3426C4.30792 30.3261 4.3184 30.3113 4.33155 30.2991C4.34471 30.2869 4.36024 30.2775 4.37719 30.2716C4.39413 30.2657 4.41212 30.2633 4.43001 30.2647ZM4.05001 33.6347H11.8L12.65 46.7447H3.08001L4.05001 33.6347Z" fill="black"/>
<path d="M38.27 46.7445C38.8426 46.0694 39.2616 45.278 39.4982 44.4251C39.7347 43.5721 39.7831 42.678 39.64 41.8045V41.7345H48.17V39.2645H52.24V10.4645C52.24 9.9685 52.043 9.49286 51.6923 9.14217C51.3416 8.79148 50.866 8.59446 50.37 8.59446H28.66L25.52 4.10446C24.994 3.36187 24.3112 2.74397 23.52 2.29446C21.69 1.20446 17.66 -0.465543 11.58 0.614457C2.81001 2.16446 -0.239985 12.1245 1.4619e-05 15.0445C0.019512 17.8138 0.647676 20.5449 1.84001 23.0445L2.21001 23.7445L21.04 18.8745L22.71 19.6645V24.5445H21.53L20.94 28.1545H17.87C17.1981 28.1545 16.5535 28.4207 16.0775 28.8949C15.6014 29.369 15.3327 30.0125 15.33 30.6845V37.3345H17.33V30.6645C17.3326 30.523 17.3907 30.3882 17.4917 30.2891C17.5927 30.19 17.7285 30.1344 17.87 30.1345H20.61L18.7 41.8045C18.5567 42.676 18.6043 43.5682 18.8396 44.4195C19.0748 45.2708 19.4922 46.0608 20.0627 46.735C20.6333 47.4092 21.3434 47.9515 22.1441 48.3243C22.9447 48.6972 23.8168 48.8917 24.7 48.8945H33.6C34.4882 48.899 35.3666 48.7088 36.1734 48.3373C36.9803 47.9659 37.6959 47.4222 38.27 46.7445ZM32.35 26.5245L36.08 25.5245L35.16 26.8945L36.87 37.2645H21.47L23.23 26.5045L32.35 26.5245ZM49.19 10.5945H50.19V37.2645H48.16V10.5945H49.19ZM39.67 16.0545C38.5066 17.7439 37.0091 19.1767 35.27 20.2645C32.2 21.5545 28.62 20.2645 28.61 20.2645L23.29 17.7745L30.39 13.7745L39.67 16.0545ZM22.54 4.05446C23.0678 4.35767 23.5247 4.77022 23.88 5.26446L28.81 12.2645L24.13 14.9145C21.44 8.00446 17.64 4.18446 15.1 2.26446H15.41C17.8995 2.20843 20.3594 2.81221 22.54 4.01446V4.05446ZM11.88 2.59446C13.09 3.21446 18.83 6.59446 22.37 15.9545L20.77 16.8645L8.91001 19.9345C8.43192 17.6813 8.09791 15.4001 7.91001 13.1045C7.67043 9.41463 8.76732 5.76188 11 2.81446C11.26 2.73446 11.56 2.65446 11.88 2.59446ZM2.00001 15.0145V14.8945C1.84001 13.2645 3.37001 7.48446 7.66001 4.40446C6.30501 7.1498 5.73076 10.2148 6.00001 13.2645C6.18044 15.6667 6.51446 18.0549 7.00001 20.4145L3.30001 21.3645C2.48601 19.3439 2.04554 17.1924 2.00001 15.0145ZM24.71 20.5845L27.82 22.0345C29.2255 22.5374 30.7072 22.7945 32.2 22.7945C33.5519 22.8068 34.8922 22.5448 36.14 22.0245L36.28 21.9445C37.2 21.3445 41.82 18.2045 41.89 15.3545V14.5645L30.89 11.7545L30.08 10.5945H46.16V39.7345H39.3L37.3 27.3445L38.53 25.4845C38.687 25.23 38.7639 24.9342 38.7505 24.6356C38.7372 24.3369 38.6343 24.0491 38.4553 23.8097C38.2763 23.5702 38.0293 23.3902 37.7466 23.293C37.4639 23.1957 37.1585 23.1858 36.87 23.2645L32.22 24.5645H24.72L24.71 20.5845ZM24.71 46.8945C24.1197 46.8878 23.5378 46.7537 23.0041 46.5013C22.4704 46.249 21.9974 45.8844 21.6176 45.4324C21.2378 44.9805 20.9601 44.4518 20.8035 43.8826C20.6468 43.3134 20.6149 42.7171 20.71 42.1345L21.14 39.2645H37.2L37.67 42.1145C37.764 42.7022 37.7295 43.3033 37.569 43.8764C37.4085 44.4495 37.1256 44.9811 36.74 45.4345C36.356 45.887 35.8779 46.2502 35.339 46.4989C34.8001 46.7477 34.2135 46.8758 33.62 46.8745L24.71 46.8945Z" fill="black"/>
</g>
<defs>
<clipPath id="clip0_8_2020">
<rect width="52.23" height="48.63" fill="white" transform="translate(0 0.264648)"/>
</clipPath>
</defs>
</svg>
