<svg width="48" height="49" viewBox="0 0 48 49" fill="none" xmlns="http://www.w3.org/2000/svg">
<path d="M33.3067 29.3561C33.3067 29.3561 30.7121 26.1969 30.6651 22.6709C30.8747 21.9487 30.9947 21.2034 31.0223 20.4519C31.5488 16.0985 29.5934 10.7955 25.8989 6.59256C22.3643 2.56827 17.8049 0.264648 13.396 0.264648C10.3878 0.264648 6.19507 0.941632 3.33725 4.1573C1.08857 6.7676 -0.101942 10.1252 2.85357e-06 13.5693C0.169216 21.5708 6.88132 29.9015 14.3643 31.4341C15.6791 31.7051 17.0172 31.8468 18.3596 31.8572C19.7988 31.8707 21.2316 31.6646 22.6087 31.246C23.4736 31.3683 27.0458 31.9982 29.1892 34.1326C31.9154 36.7935 42.6792 47.5595 42.792 47.6723L43.4219 48.3023L47.9624 44.2216L33.3067 29.3561ZM21.8002 18.5338L27.7227 24.7113C27.2742 25.4438 26.7547 26.1304 26.1716 26.761L26.0964 26.8645C25.2209 27.9206 24.0734 28.7173 22.7779 29.1681L17.1375 23.2727L21.8002 18.5338ZM15.8308 21.8905L9.78614 15.6002L14.4865 10.8989L20.5029 17.1892L15.8308 21.8905ZM29.1422 20.2733V20.4237C29.1119 21.2794 28.9305 22.1229 28.6063 22.9154L23.1257 17.1892L27.6381 12.6102C28.8448 14.974 29.3658 17.6286 29.1422 20.2733ZM24.4888 7.8337C25.319 8.77993 26.0616 9.79959 26.7074 10.8801L21.819 15.8353L15.7838 9.54496L20.6816 4.5334C22.094 5.4563 23.3747 6.56651 24.4888 7.8337ZM19.0364 3.56494L14.4771 8.18159L9.22209 2.69991C10.5816 2.32564 11.9859 2.13899 13.396 2.14516C15.3609 2.17393 17.292 2.66004 19.0364 3.56494ZM4.70036 5.40784C5.4433 4.59209 6.33716 3.92796 7.33255 3.45211L13.161 9.52616L8.46064 14.2274L2.82021 8.36964C3.2808 7.28619 3.91594 6.28565 4.70036 5.40784ZM2.20917 10.4288L7.16334 15.6002L3.29965 19.5211C2.43769 17.6372 1.95533 15.602 1.88014 13.5316C1.86644 12.488 1.97689 11.4464 2.20917 10.4288ZM4.18332 21.2887L8.46064 16.9542L14.4959 23.2539L10.1622 27.6449C7.69846 26.0244 5.65037 23.8471 4.18332 21.2887ZM14.7309 29.5536C13.7577 29.3499 12.8114 29.0344 11.9107 28.6133L15.8308 24.636L20.6816 29.7228C18.705 30.041 16.6862 29.9836 14.7309 29.5536ZM27.6005 27.9928C28.2334 27.2948 28.7999 26.5393 29.2926 25.7361C29.8075 27.3358 30.5791 28.841 31.577 30.193L29.7908 32.0735C28.4819 31.0866 27.0036 30.3473 25.4289 29.8921C26.2561 29.388 26.9907 28.7455 27.6005 27.9928ZM31.1821 33.3804L32.9025 31.5751L45.2738 44.1087L43.5253 45.6789C41.3631 43.5164 34.1152 36.267 31.1821 33.3804Z" fill="black"/>
</svg>
