<svg width="28" height="50" viewBox="0 0 28 50" fill="none" xmlns="http://www.w3.org/2000/svg">
<path d="M27.2101 44.7105C27.2799 38.0291 26.18 16.1095 26.1335 15.1561C25.8934 10.6729 25.359 1.91138 25.359 1.91138L25.3202 1.17074H17.2029V0.264648H10.7432V1.17074H3.30751L3.2378 1.87986C3.2378 2.02956 1.82038 16.8501 1.39437 25.5723C1.02259 33.1204 0.929644 42.2995 0.914153 44.6396C0.634227 44.7916 0.400848 45.019 0.239622 45.297C0.0783967 45.5749 -0.00444579 45.8927 0.000183952 46.2154V47.5391C0.000183952 48.0051 0.182161 48.452 0.506083 48.7815C0.830005 49.111 1.26934 49.2962 1.72743 49.2962H8.10973C8.56782 49.2962 9.00715 49.111 9.33108 48.7815C9.655 48.452 9.83697 48.0051 9.83697 47.5391V46.1839C9.83556 45.8823 9.75786 45.5862 9.61136 45.324C9.46485 45.0618 9.25447 44.8424 9.00046 44.6869C9.31028 41.5353 10.9136 26.565 14.0815 18.3787C16.5599 26.999 18.1511 35.858 18.8295 44.813C18.6224 44.974 18.4545 45.1815 18.339 45.4193C18.2235 45.657 18.1634 45.9187 18.1634 46.1839V47.5391C18.1634 48.0051 18.3454 48.452 18.6693 48.7815C18.9932 49.111 19.4325 49.2962 19.8906 49.2962H26.2729C26.731 49.2962 27.1704 49.111 27.4943 48.7815C27.8182 48.452 28.0002 48.0051 28.0002 47.5391V46.1839C27.9998 45.8908 27.9273 45.6024 27.7893 45.3451C27.6513 45.0877 27.4522 44.8696 27.2101 44.7105ZM24.2668 9.36499C23.8563 9.41726 23.4396 9.38639 23.0408 9.27416C22.642 9.16192 22.269 8.97053 21.9432 8.71102C21.1243 7.8675 20.6438 6.74386 20.5955 5.55939H24.019C24.1119 6.73337 24.1894 8.0413 24.2668 9.36499ZM23.9648 4.02297H19.3175V2.74656H23.9028C23.9106 3.07748 23.9338 3.51871 23.9648 4.02297ZM17.7684 2.74656V4.02297H17.2184V2.74656H17.7684ZM12.2923 1.84046H15.6538V4.72421H12.2923V1.84046ZM10.7432 4.02297H10.201V2.74656H10.7432V4.02297ZM4.45385 5.59879H7.66823C7.63933 6.57221 7.24913 7.49839 6.57612 8.191C5.88735 8.78346 5.03493 9.14408 4.13628 9.22316C4.25247 7.87584 4.3609 6.6467 4.45385 5.59879ZM8.65191 2.74656V4.02297H4.59327C4.63974 3.50295 4.68621 3.0696 4.70945 2.74656H8.65191ZM8.28787 47.5391C8.28787 47.5872 8.2691 47.6333 8.2357 47.6673C8.20229 47.7013 8.15697 47.7203 8.10973 47.7203H1.72743C1.68018 47.7203 1.63487 47.7013 1.60146 47.6673C1.56805 47.6333 1.54928 47.5872 1.54928 47.5391V46.1839C1.54928 46.1359 1.56805 46.0898 1.60146 46.0558C1.63487 46.0218 1.68018 46.0027 1.72743 46.0027H8.10973C8.15697 46.0027 8.20229 46.0218 8.2357 46.0558C8.2691 46.0898 8.28787 46.1359 8.28787 46.1839V47.5391ZM14.2209 16.0228C13.985 16.0045 13.7493 16.0615 13.5466 16.1857C13.344 16.31 13.1844 16.4954 13.0901 16.7162C9.5349 24.8316 7.8154 40.8104 7.46685 44.4269H2.46325C2.46325 41.7716 2.58718 32.9471 2.94348 25.6432C3.1526 21.3727 3.60184 15.5895 3.99686 10.8147C5.32835 10.7514 6.60112 10.2385 7.61401 9.35711C8.11336 8.86958 8.51336 8.28671 8.79112 7.64184C9.06889 6.99696 9.21898 6.30271 9.23283 5.59879H10.7432V6.30002H17.2029V5.59879H19.0696C19.139 7.22734 19.8146 8.76811 20.9595 9.90864C21.8169 10.626 22.9017 11.0013 24.0112 10.9644H24.3675C24.4527 12.5403 24.5379 14.053 24.5999 15.2585C24.5999 15.487 25.7153 37.4775 25.6765 44.4111H20.3631C19.5886 32.167 16.2735 20.2539 15.2588 16.8344C15.187 16.6081 15.0493 16.4093 14.8639 16.2644C14.6786 16.1195 14.4544 16.0352 14.2209 16.0228ZM26.4511 47.5391C26.4511 47.5872 26.4323 47.6333 26.3989 47.6673C26.3655 47.7013 26.3202 47.7203 26.2729 47.7203H19.8906C19.8434 47.7203 19.7981 47.7013 19.7647 47.6673C19.7313 47.6333 19.7125 47.5872 19.7125 47.5391V46.1839C19.7125 46.1359 19.7313 46.0898 19.7647 46.0558C19.7981 46.0218 19.8434 46.0027 19.8906 46.0027H26.2729C26.3202 46.0027 26.3655 46.0218 26.3989 46.0558C26.4323 46.0898 26.4511 46.1359 26.4511 46.1839V47.5391Z" fill="black"/>
</svg>
