<svg width="33" height="53" viewBox="0 0 33 53" fill="none" xmlns="http://www.w3.org/2000/svg">
<path d="M24.78 10.2646V8.51465C24.78 6.32661 23.9108 4.22819 22.3636 2.68102C20.8165 1.13384 18.718 0.264648 16.53 0.264648C14.342 0.264648 12.2435 1.13384 10.6964 2.68102C9.14919 4.22819 8.28 6.32661 8.28 8.51465V10.2646H0L8.62 52.6246H25.46L33 10.2646H24.78ZM10.28 8.51465C10.28 7.69389 10.4417 6.88116 10.7558 6.12288C11.0698 5.36459 11.5302 4.6756 12.1106 4.09523C12.6909 3.51486 13.3799 3.05449 14.1382 2.7404C14.8965 2.42631 15.7092 2.26465 16.53 2.26465C17.3508 2.26465 18.1635 2.42631 18.9218 2.7404C19.6801 3.05449 20.3691 3.51486 20.9494 4.09523C21.5298 4.6756 21.9902 5.36459 22.3042 6.12288C22.6183 6.88116 22.78 7.69389 22.78 8.51465V10.2646H10.28V8.51465ZM30.64 12.2646L25.75 39.6646H8L2.45 12.2646H30.64ZM10.25 50.6246L8.42 41.6246H25.42L23.81 50.6246H10.25Z" fill="black"/>
</svg>
