<svg width="23" height="23" viewBox="0 0 23 23" fill="none" xmlns="http://www.w3.org/2000/svg">
<path d="M14.7495 11.3434C14.7495 12.0364 14.544 12.714 14.1589 13.2902C13.7739 13.8665 13.2266 14.3157 12.5862 14.5809C11.9459 14.8461 11.2413 14.9155 10.5616 14.7803C9.88182 14.6451 9.25742 14.3113 8.76735 13.8213C8.27727 13.3312 7.94352 12.7068 7.80831 12.027C7.67309 11.3473 7.74249 10.6427 8.00772 10.0024C8.27295 9.36203 8.7221 8.81474 9.29837 8.42969C9.87464 8.04464 10.5522 7.83912 11.2452 7.83912C12.1743 7.84018 13.065 8.20972 13.7219 8.86666C14.3789 9.52361 14.7484 10.4143 14.7495 11.3434ZM22.196 6.52502V16.1617C22.1942 17.7876 21.5475 19.3463 20.3978 20.496C19.2482 21.6456 17.6894 22.2923 16.0636 22.2942H6.42688C4.80102 22.2923 3.24228 21.6456 2.09262 20.496C0.942961 19.3463 0.296275 17.7876 0.294434 16.1617V6.52502C0.296275 4.89916 0.942961 3.34042 2.09262 2.19076C3.24228 1.04111 4.80102 0.394419 6.42688 0.392578H16.0636C17.6894 0.394419 19.2482 1.04111 20.3978 2.19076C21.5475 3.34042 22.1942 4.89916 22.196 6.52502ZM16.5016 11.3434C16.5016 10.3038 16.1933 9.28749 15.6157 8.42308C15.0382 7.55868 14.2172 6.88495 13.2568 6.48711C12.2963 6.08927 11.2394 5.98517 10.2198 6.18799C9.20012 6.39081 8.26352 6.89143 7.52841 7.62655C6.79329 8.36167 6.29267 9.29827 6.08985 10.3179C5.88703 11.3375 5.99112 12.3944 6.38897 13.3549C6.78681 14.3154 7.46053 15.1363 8.32494 15.7139C9.18935 16.2915 10.2056 16.5998 11.2452 16.5998C12.6388 16.5982 13.9749 16.0439 14.9603 15.0585C15.9457 14.073 16.5 12.737 16.5016 11.3434ZM18.2537 5.64896C18.2537 5.38906 18.1767 5.13499 18.0323 4.91889C17.8879 4.70279 17.6826 4.53435 17.4425 4.43489C17.2024 4.33543 16.9382 4.30941 16.6833 4.36011C16.4284 4.41082 16.1942 4.53597 16.0104 4.71975C15.8267 4.90353 15.7015 5.13768 15.6508 5.39259C15.6001 5.6475 15.6261 5.91172 15.7256 6.15184C15.825 6.39196 15.9935 6.5972 16.2096 6.74159C16.4257 6.88598 16.6797 6.96305 16.9396 6.96305C17.2882 6.96305 17.6224 6.82461 17.8688 6.57817C18.1153 6.33172 18.2537 5.99748 18.2537 5.64896Z" fill="#BFBFBF"/>
</svg>
