<svg width="52" height="52" viewBox="0 0 52 52" fill="none" xmlns="http://www.w3.org/2000/svg">
<path d="M31.6257 11.568C33.8123 11.9946 35.8218 13.064 37.3971 14.6393C38.9724 16.2146 40.0418 18.2241 40.4684 20.4107M31.6257 2.61328C36.1686 3.11796 40.4048 5.15233 43.6389 8.38235C46.873 11.6124 48.9127 15.8461 49.4231 20.3883M47.1845 38.2529V44.9689C47.187 45.5924 47.0593 46.2095 46.8095 46.7808C46.5597 47.3521 46.1934 47.8649 45.734 48.2864C45.2745 48.7078 44.7322 49.0287 44.1415 49.2285C43.5509 49.4282 42.9251 49.5024 42.3042 49.4463C35.4154 48.6978 28.7982 46.3438 22.9844 42.5736C17.5754 39.1365 12.9895 34.5506 9.55239 29.1415C5.76899 23.3013 3.4145 16.652 2.67967 9.73226C2.62373 9.11319 2.6973 8.48926 2.8957 7.90018C3.09411 7.31111 3.41299 6.7698 3.83206 6.31072C4.25113 5.85164 4.7612 5.48485 5.32979 5.2337C5.89838 4.98254 6.51304 4.85254 7.13463 4.85195H13.8506C14.9371 4.84126 15.9903 5.22599 16.8141 5.93442C17.6379 6.64286 18.1759 7.62667 18.328 8.70247C18.6114 10.8517 19.1371 12.962 19.8951 14.9931C20.1963 15.7944 20.2614 16.6652 20.0829 17.5024C19.9043 18.3396 19.4895 19.1081 18.8876 19.7167L16.0445 22.5598C19.2314 28.1645 23.8719 32.805 29.4766 35.9919L32.3197 33.1488C32.9283 32.5469 33.6968 32.1321 34.534 31.9535C35.3712 31.775 36.242 31.8402 37.0433 32.1414C39.0744 32.8993 41.1847 33.425 43.3339 33.7084C44.4214 33.8618 45.4146 34.4096 46.1245 35.2475C46.8345 36.0854 47.2117 37.155 47.1845 38.2529Z" stroke="#FBC702" stroke-width="4" stroke-linecap="round" stroke-linejoin="round"/>
</svg>
