<svg width="314" height="135" viewBox="0 0 314 135" fill="none" xmlns="http://www.w3.org/2000/svg">
<path d="M179.035 31.172C178.197 31.172 177.806 30.7532 177.806 29.9434V12.463C177.806 11.6253 178.225 11.2344 179.035 11.2344H186.714C188.277 11.2344 189.478 11.6532 190.316 12.463C191.154 13.3007 191.572 14.4735 191.572 15.9814V16.7633C191.572 18.0757 191.154 19.1089 190.316 19.8349C191.88 20.7006 192.661 22.2922 192.661 24.6099V25.6152C192.661 27.4302 192.187 28.7985 191.237 29.7479C190.288 30.6973 188.892 31.172 187.105 31.172H179.035ZM180.263 19.1368H187.244C187.97 19.1368 188.445 18.9134 188.696 18.4667C188.948 18.0199 189.087 17.4614 189.087 16.7633V15.9814C189.087 15.1158 188.92 14.5294 188.557 14.1943C188.194 13.8592 187.579 13.6917 186.714 13.6917H180.263V19.1368ZM180.263 28.7147H187.105C188.222 28.7147 189.003 28.4634 189.478 27.9887C189.953 27.514 190.204 26.7321 190.204 25.6431V24.6378C190.204 23.5488 189.981 22.7669 189.506 22.2922C189.031 21.8175 188.25 21.5941 187.105 21.5941H180.263V28.7147Z" fill="white"/>
<path d="M202.407 31.1721C200.759 31.1721 199.531 30.7812 198.721 29.9714C197.911 29.1616 197.52 27.9329 197.52 26.2854C197.52 24.6379 197.911 23.4093 198.721 22.5995C199.531 21.7897 200.759 21.3987 202.407 21.3987H208.634C208.578 20.3656 208.299 19.6675 207.824 19.2765C207.349 18.8856 206.512 18.718 205.339 18.718H203.636C202.658 18.718 201.932 18.7739 201.43 18.9135C200.955 19.0531 200.62 19.2765 200.424 19.6395C200.257 20.0584 200.061 20.3376 199.894 20.5052C199.698 20.6727 199.419 20.7286 199.056 20.7286C198.637 20.7286 198.33 20.6169 198.079 20.3935C197.855 20.1701 197.772 19.8629 197.883 19.472C198.19 18.355 198.805 17.5452 199.726 17.0426C200.676 16.54 201.96 16.2607 203.636 16.2607H205.339C207.294 16.2607 208.746 16.7354 209.695 17.6849C210.644 18.6343 211.119 20.0863 211.119 22.041V29.9714C211.119 30.8091 210.7 31.2 209.891 31.2C209.081 31.2 208.662 30.7812 208.662 29.9714V29.3012C207.601 30.5578 206.093 31.2 204.082 31.2H202.407V31.1721ZM202.407 28.7148H204.054C204.78 28.7148 205.451 28.659 206.093 28.5193C206.735 28.3797 207.266 28.1563 207.74 27.7933C208.187 27.4303 208.494 26.9277 208.634 26.2854V23.884H202.407C201.43 23.884 200.787 24.0515 200.48 24.3587C200.173 24.6938 200.005 25.336 200.005 26.2854C200.005 27.2628 200.173 27.905 200.48 28.2122C200.787 28.5473 201.43 28.7148 202.407 28.7148Z" fill="white"/>
<path d="M215.168 37.0645C214.749 37.0645 214.442 36.9529 214.247 36.7295C214.051 36.5061 213.967 36.1989 213.967 35.808C213.967 35.417 214.079 35.1099 214.275 34.8865C214.47 34.6631 214.777 34.5793 215.168 34.5793C215.95 34.5793 216.508 34.4397 216.76 34.1884C217.039 33.9091 217.151 33.3786 217.151 32.5967V17.4899C217.151 16.6522 217.57 16.2612 218.379 16.2612C219.217 16.2612 219.608 16.6801 219.608 17.4899V32.5967C219.608 34.1046 219.245 35.2216 218.519 35.9755C217.793 36.7015 216.676 37.0645 215.168 37.0645ZM218.016 13.8598C217.095 13.8598 216.62 13.3851 216.62 12.4357V11.57C216.62 10.6485 217.095 10.1738 218.016 10.1738H218.882C219.776 10.1738 220.222 10.6485 220.222 11.57V12.4357C220.222 13.3851 219.776 13.8598 218.882 13.8598H218.016Z" fill="white"/>
<path d="M231.029 31.1725C229.074 31.1725 227.622 30.6978 226.673 29.7484C225.723 28.799 225.249 27.3749 225.249 25.4202V22.0414C225.249 20.0588 225.723 18.6067 226.673 17.6853C227.622 16.7358 229.074 16.2891 231.029 16.2891H233.43C235.385 16.2891 236.837 16.7638 237.786 17.7132C238.736 18.6626 239.211 20.1146 239.211 22.0693V25.4481C239.211 27.4028 238.736 28.8548 237.786 29.8042C236.837 30.7536 235.385 31.2283 233.43 31.2283H231.029V31.1725ZM227.734 25.4481C227.734 26.7047 227.957 27.5703 228.432 28.0171C228.907 28.4639 229.772 28.7152 231.029 28.7152H233.43C234.715 28.7152 235.581 28.4918 236.055 28.0171C236.502 27.5424 236.753 26.6768 236.753 25.4202V22.0414C236.753 20.7569 236.53 19.8912 236.055 19.4165C235.581 18.9418 234.715 18.7184 233.43 18.7184H231.029C230.163 18.7184 229.521 18.8022 229.046 18.9977C228.572 19.1931 228.237 19.5282 228.041 20.0029C227.846 20.4776 227.734 21.1478 227.734 22.0135V25.4481Z" fill="white"/>
<path d="M245.661 13.8598C244.74 13.8598 244.265 13.3851 244.265 12.4357V11.57C244.265 10.6485 244.74 10.1738 245.661 10.1738H246.527C247.42 10.1738 247.867 10.6485 247.867 11.57V12.4357C247.867 13.3851 247.42 13.8598 246.527 13.8598H245.661ZM246.052 31.1726C245.214 31.1726 244.823 30.7537 244.823 29.944V17.4899C244.823 16.6522 245.242 16.2612 246.052 16.2612C246.89 16.2612 247.281 16.6801 247.281 17.4899V29.944C247.309 30.7817 246.89 31.1726 246.052 31.1726Z" fill="white"/>
<path d="M259.93 31.172C257.975 31.172 256.551 30.6973 255.63 29.7758C254.708 28.8543 254.234 27.4302 254.234 25.5034V18.7459H252.782C251.944 18.7459 251.553 18.327 251.553 17.5172C251.553 16.7074 251.972 16.2886 252.782 16.2886H254.234V14.1105C254.234 13.2728 254.653 12.8818 255.462 12.8818C256.272 12.8818 256.691 13.3007 256.691 14.1105V16.2606H260.07C260.907 16.2606 261.298 16.6795 261.298 17.4893C261.298 18.2991 260.88 18.7179 260.07 18.7179H256.691V25.5034C256.691 26.76 256.914 27.5977 257.361 28.0166C257.808 28.4634 258.646 28.6588 259.902 28.6588C260.293 28.6588 260.6 28.7705 260.796 28.966C261.019 29.1615 261.131 29.4686 261.131 29.9154C261.159 30.7811 260.74 31.172 259.93 31.172Z" fill="white"/>
<path d="M183.782 72.1363C183.363 72.1363 183.056 72.0246 182.86 71.8291C182.665 71.6337 182.553 71.3265 182.553 70.9076V54.6839H176.857C176.438 54.6839 176.131 54.5722 175.935 54.3767C175.74 54.1812 175.628 53.8741 175.628 53.4552C175.628 53.0364 175.74 52.7292 175.935 52.5337C176.131 52.3383 176.438 52.2266 176.857 52.2266H190.763C191.182 52.2266 191.489 52.3383 191.684 52.5337C191.88 52.7292 191.991 53.0364 191.991 53.4552C191.991 53.8741 191.88 54.1812 191.684 54.3767C191.489 54.5722 191.182 54.6839 190.763 54.6839H185.066V70.9076C185.066 71.2986 184.955 71.6057 184.759 71.8291C184.48 72.0246 184.173 72.1363 183.782 72.1363Z" fill="white"/>
<path d="M194.616 65.6868V66.3849C194.616 67.6415 194.84 68.5071 195.314 68.9539C195.789 69.4007 196.655 69.652 197.911 69.652H200.313C201.318 69.652 202.044 69.5682 202.547 69.3727C203.021 69.1773 203.356 68.8701 203.496 68.3954C203.608 68.0324 203.747 67.7252 203.943 67.5298C204.138 67.3343 204.417 67.2226 204.808 67.2226C205.227 67.2226 205.534 67.3343 205.758 67.5577C205.981 67.7811 206.037 68.0882 205.953 68.5071C205.73 69.7358 205.171 70.6293 204.222 71.2436C203.273 71.83 201.988 72.1372 200.313 72.1372H197.911C195.956 72.1372 194.504 71.6625 193.555 70.7131C192.606 69.7637 192.131 68.3396 192.131 66.3849V62.9782C192.131 60.9956 192.606 59.5156 193.555 58.5941C194.504 57.6447 195.956 57.1979 197.911 57.2258H200.313C202.267 57.2258 203.719 57.7005 204.669 58.622C205.618 59.5714 206.093 61.0235 206.093 62.9782V64.4581C206.093 65.2959 205.674 65.6868 204.864 65.6868H194.616ZM197.911 59.6831C196.627 59.6552 195.761 59.8786 195.314 60.3533C194.84 60.828 194.616 61.6937 194.616 62.9782V63.2016H203.636V62.9782C203.636 61.6937 203.412 60.828 202.937 60.3533C202.463 59.8786 201.597 59.6552 200.313 59.6552H197.911V59.6831Z" fill="white"/>
<path d="M212.962 72.1366C212.124 72.1366 211.734 71.7177 211.734 70.9079V58.4538C211.734 57.6161 212.152 57.2252 212.962 57.2252C213.8 57.2252 214.191 57.644 214.191 58.4538V58.9285C215.224 57.7837 216.76 57.1973 218.77 57.1973H219.608C221.563 57.1973 223.015 57.672 223.964 58.6214C224.914 59.5708 225.388 61.0228 225.388 62.9775V70.9079C225.388 71.7456 224.969 72.1366 224.16 72.1366C223.322 72.1366 222.931 71.7177 222.931 70.9079V62.9775C222.931 61.693 222.708 60.8274 222.233 60.3527C221.758 59.878 220.893 59.6546 219.636 59.6546H218.798C217.625 59.6546 216.592 59.7942 215.727 60.0455C214.861 60.3247 214.358 60.7436 214.219 61.33V70.88C214.191 71.7456 213.772 72.1366 212.962 72.1366Z" fill="white"/>
<path d="M232.649 72.1366C231.811 72.1366 231.42 71.7177 231.42 70.9079V58.4538C231.42 57.6161 231.839 57.2252 232.649 57.2252C233.486 57.2252 233.877 57.644 233.877 58.4538V58.9285C234.91 57.7837 236.446 57.1973 238.457 57.1973H239.294C241.249 57.1973 242.701 57.672 243.651 58.6214C244.6 59.5708 245.075 61.0228 245.075 62.9775V70.9079C245.075 71.7456 244.656 72.1366 243.846 72.1366C243.008 72.1366 242.617 71.7177 242.617 70.9079V62.9775C242.617 61.693 242.394 60.8274 241.919 60.3527C241.445 59.878 240.579 59.6546 239.322 59.6546H238.485C237.312 59.6546 236.279 59.7942 235.413 60.0455C234.547 60.3247 234.045 60.7436 233.905 61.33V70.88C233.877 71.7456 233.458 72.1366 232.649 72.1366Z" fill="white"/>
<path d="M251.916 54.7963C250.994 54.7963 250.52 54.3216 250.52 53.3722V52.5065C250.52 51.5851 250.994 51.1104 251.916 51.1104H252.782C253.675 51.1104 254.122 51.5851 254.122 52.5065V53.3722C254.122 54.3216 253.675 54.7963 252.782 54.7963H251.916ZM252.335 72.1371C251.497 72.1371 251.106 71.7182 251.106 70.9084V58.4543C251.106 57.6166 251.525 57.2257 252.335 57.2257C253.173 57.2257 253.563 57.6445 253.563 58.4543V70.9084C253.563 71.7461 253.145 72.1371 252.335 72.1371Z" fill="white"/>
<path d="M263.393 72.1366C262.136 72.1366 261.159 71.8852 260.433 71.3547C259.707 70.8521 259.232 70.0702 259.037 69.037C258.981 68.6181 259.037 68.311 259.288 68.0597C259.511 67.8363 259.846 67.6966 260.265 67.6966C260.656 67.6966 260.963 67.8083 261.131 68.0038C261.326 68.1993 261.466 68.5064 261.578 68.8974C261.689 69.2045 261.885 69.4 262.164 69.4838C262.443 69.5955 262.862 69.6234 263.393 69.6234H268.224C268.978 69.6234 269.508 69.5117 269.759 69.2604C270.011 69.0091 270.15 68.4785 270.15 67.6966C270.15 66.9148 270.011 66.3842 269.759 66.1329C269.508 65.8816 268.978 65.742 268.224 65.742H263.477C262.052 65.742 260.991 65.379 260.293 64.6809C259.567 63.9549 259.232 62.8937 259.232 61.4975C259.232 60.0455 259.595 58.9844 260.293 58.2584C260.991 57.5603 262.08 57.1973 263.504 57.1973H268.084C270.402 57.1973 271.742 58.1746 272.189 60.1013C272.273 60.5202 272.189 60.8274 271.965 61.0508C271.742 61.2742 271.407 61.3859 270.988 61.3859C270.597 61.3859 270.318 61.2742 270.122 61.0787C269.927 60.8832 269.787 60.604 269.676 60.241C269.564 60.0176 269.368 59.85 269.145 59.7663C268.894 59.6825 268.559 59.6546 268.084 59.6546H263.504C262.751 59.6546 262.276 59.7663 262.052 59.9897C261.829 60.213 261.717 60.7157 261.717 61.4696C261.717 62.1677 261.829 62.6424 262.08 62.8937C262.332 63.1451 262.806 63.2568 263.504 63.2568H268.252C269.731 63.2568 270.821 63.6198 271.574 64.3737C272.3 65.0997 272.691 66.2167 272.691 67.6966C272.691 69.1766 272.328 70.2936 271.574 71.0196C270.848 71.7456 269.731 72.1086 268.252 72.1086H263.393V72.1366Z" fill="white"/>
<path d="M176.857 113.269C176.075 112.962 175.823 112.431 176.158 111.649L183.167 94.3924C183.475 93.7501 183.921 93.415 184.564 93.415H184.619C185.262 93.443 185.681 93.778 185.904 94.3924L193.025 111.649C193.332 112.431 193.108 112.962 192.354 113.269C191.572 113.576 191.042 113.353 190.735 112.599L189.143 108.745H179.984L178.476 112.599C178.141 113.353 177.611 113.576 176.857 113.269ZM180.933 106.26H188.11L184.452 97.3523L180.933 106.26Z" fill="white"/>
<path d="M202.1 113.381C200.145 113.381 198.693 112.906 197.744 111.957C196.794 111.007 196.32 109.555 196.32 107.6V104.194C196.32 102.239 196.794 100.787 197.716 99.8376C198.637 98.8882 200.117 98.4414 202.072 98.4414H204.473C205.925 98.4414 207.098 98.6927 207.936 99.1674C208.774 99.6701 209.304 100.424 209.555 101.429C209.639 101.848 209.583 102.155 209.332 102.379C209.109 102.602 208.774 102.714 208.327 102.714C207.936 102.714 207.657 102.602 207.489 102.407C207.322 102.211 207.154 101.932 207.014 101.569C206.875 101.318 206.596 101.122 206.205 101.01C205.814 100.899 205.227 100.843 204.473 100.843H202.072C200.815 100.815 199.95 101.038 199.475 101.485C199 101.932 198.777 102.825 198.777 104.11V107.517C198.777 108.801 199 109.667 199.475 110.114C199.95 110.588 200.815 110.812 202.072 110.812H204.473C205.227 110.812 205.814 110.756 206.205 110.644C206.596 110.532 206.875 110.365 207.014 110.086C207.154 109.723 207.322 109.443 207.517 109.248C207.712 109.052 207.992 108.969 208.383 108.969C208.802 108.969 209.109 109.08 209.36 109.304C209.583 109.527 209.667 109.862 209.583 110.253C209.36 111.258 208.802 112.012 207.964 112.515C207.126 113.018 205.981 113.269 204.501 113.269H202.1V113.381Z" fill="white"/>
<path d="M218.938 113.38C217.29 113.38 216.062 112.989 215.252 112.179C214.442 111.37 214.051 110.141 214.051 108.493C214.051 106.846 214.442 105.617 215.252 104.807C216.062 103.998 217.29 103.607 218.938 103.607H225.165C225.109 102.574 224.83 101.875 224.355 101.485C223.88 101.094 223.043 100.926 221.87 100.926H220.167C219.189 100.926 218.463 100.982 217.961 101.122C217.458 101.261 217.151 101.485 216.955 101.848C216.788 102.266 216.592 102.546 216.425 102.713C216.229 102.881 215.95 102.937 215.587 102.937C215.168 102.937 214.861 102.825 214.61 102.601C214.386 102.378 214.303 102.071 214.414 101.68C214.721 100.563 215.336 99.7532 216.257 99.2506C217.207 98.748 218.491 98.4688 220.167 98.4688H221.87C223.825 98.4688 225.277 98.9435 226.226 99.8929C227.175 100.842 227.65 102.294 227.65 104.249V112.179C227.65 113.017 227.231 113.408 226.421 113.408C225.612 113.408 225.193 112.989 225.193 112.179V111.509C224.132 112.766 222.624 113.408 220.613 113.408H218.938V113.38ZM218.938 110.923H220.585C221.311 110.923 221.982 110.867 222.624 110.727C223.266 110.588 223.797 110.364 224.271 110.001C224.718 109.638 225.025 109.136 225.165 108.493V106.12H218.938C217.961 106.12 217.318 106.287 217.011 106.595C216.704 106.93 216.536 107.572 216.536 108.521C216.536 109.499 216.704 110.141 217.011 110.448C217.318 110.755 217.961 110.923 218.938 110.923Z" fill="white"/>
<path d="M238.736 113.381C236.781 113.381 235.329 112.906 234.38 111.957C233.43 111.007 232.956 109.555 232.956 107.6V104.222C232.956 102.267 233.43 100.815 234.38 99.8655C235.329 98.9161 236.781 98.4414 238.736 98.4414H244.46V93.8898C244.46 93.0521 244.879 92.6611 245.689 92.6611C246.527 92.6611 246.918 93.08 246.918 93.8898V112.152C246.918 112.99 246.499 113.381 245.689 113.381C244.851 113.381 244.46 112.962 244.46 112.152V111.957C243.986 112.431 243.399 112.794 242.645 113.018C241.891 113.269 240.97 113.381 239.853 113.381H238.736ZM238.736 110.923H239.853C241.137 110.923 242.226 110.756 243.12 110.421C244.014 110.086 244.432 109.583 244.432 108.885V100.927H238.708C237.424 100.927 236.558 101.15 236.111 101.625C235.636 102.099 235.413 102.965 235.413 104.222V107.6C235.413 108.885 235.636 109.751 236.111 110.197C236.614 110.672 237.479 110.923 238.736 110.923Z" fill="white"/>
<path d="M254.708 106.93V107.628C254.708 108.885 254.932 109.75 255.406 110.197C255.881 110.644 256.747 110.895 258.003 110.895H260.405C261.41 110.895 262.136 110.811 262.639 110.616C263.113 110.42 263.449 110.113 263.588 109.639C263.7 109.276 263.839 108.968 264.035 108.773C264.23 108.577 264.51 108.466 264.901 108.466C265.319 108.466 265.627 108.577 265.85 108.801C266.073 109.024 266.129 109.331 266.045 109.75C265.822 110.979 265.264 111.872 264.314 112.487C263.365 113.073 262.08 113.38 260.405 113.38H258.003C256.049 113.38 254.597 112.906 253.647 111.956C252.698 111.007 252.223 109.583 252.223 107.628V104.221C252.223 102.239 252.698 100.759 253.647 99.8373C254.597 98.8879 256.049 98.4411 258.003 98.469H260.405C262.36 98.469 263.812 98.9437 264.761 99.8652C265.71 100.815 266.185 102.267 266.185 104.221V105.701C266.185 106.539 265.766 106.93 264.956 106.93H254.708ZM258.003 100.926C256.719 100.898 255.853 101.122 255.406 101.596C254.932 102.071 254.708 102.937 254.708 104.221V104.445H263.728V104.221C263.728 102.937 263.504 102.071 263.03 101.596C262.555 101.122 261.689 100.898 260.405 100.898H258.003V100.926Z" fill="white"/>
<path d="M288.161 98.4688C290.004 98.4688 291.345 98.9155 292.154 99.7812C292.964 100.647 293.355 102.099 293.355 104.109V112.151C293.355 112.989 292.936 113.38 292.126 113.38C291.289 113.38 290.898 112.961 290.898 112.151V104.109C290.898 102.992 290.674 102.183 290.255 101.68C289.837 101.177 289.139 100.926 288.161 100.926H286.96C285.844 100.926 285.034 101.177 284.559 101.68C284.084 102.183 283.833 102.992 283.833 104.109V112.151C283.833 112.989 283.414 113.38 282.604 113.38C281.767 113.38 281.376 112.961 281.376 112.151V104.109C281.376 102.992 281.152 102.183 280.733 101.68C280.315 101.177 279.616 100.926 278.639 100.926H277.438C276.321 100.926 275.512 101.177 275.037 101.68C274.562 102.183 274.311 102.992 274.311 104.109V112.151C274.311 112.989 273.892 113.38 273.082 113.38C272.245 113.38 271.854 112.961 271.854 112.151V99.6974C271.854 98.8597 272.272 98.4688 273.082 98.4688C273.92 98.4688 274.311 98.8876 274.311 99.6974V100.368C274.841 99.6974 275.4 99.1948 276.014 98.9155C276.629 98.6084 277.383 98.4688 278.248 98.4688H278.639C279.868 98.4688 280.817 98.6363 281.515 98.9714C282.213 99.3065 282.744 99.8649 283.107 100.619C283.638 99.837 284.168 99.2785 284.754 98.9714C285.341 98.6363 286.067 98.4688 286.96 98.4688H288.161Z" fill="white"/>
<path d="M303.352 119.273C301.928 119.273 300.867 118.91 300.168 118.212C299.47 117.513 299.107 116.424 299.107 115C299.107 114.163 299.526 113.772 300.336 113.772C301.146 113.772 301.565 114.19 301.565 115C301.565 115.726 301.676 116.229 301.9 116.452C302.123 116.676 302.598 116.787 303.324 116.787H309.02C309.746 116.787 310.221 116.676 310.445 116.452C310.668 116.229 310.78 115.726 310.78 115V111.258C310.193 112.152 309.495 112.711 308.713 112.99C307.931 113.241 307.094 113.381 306.172 113.381H304.72C302.765 113.381 301.341 112.906 300.42 111.984C299.498 111.063 299.024 109.639 299.024 107.712V99.6701C299.024 98.8323 299.442 98.4414 300.252 98.4414C301.062 98.4414 301.481 98.8603 301.481 99.6701V107.712C301.481 108.941 301.704 109.779 302.151 110.225C302.598 110.672 303.436 110.895 304.692 110.895H306.144C307.764 110.895 308.909 110.644 309.635 110.114C310.361 109.583 310.724 108.801 310.724 107.712V99.6701C310.724 98.8323 311.143 98.4414 311.952 98.4414C312.762 98.4414 313.181 98.8603 313.181 99.6701V114.972C313.181 116.396 312.818 117.458 312.12 118.184C311.422 118.882 310.361 119.245 308.937 119.245H303.352V119.273Z" fill="white"/>
<path d="M125.895 25.4479C125.784 28.1844 125.421 30.8651 124.443 33.4341C122.824 37.7344 119.976 40.9177 115.955 43.1517C111.71 45.5252 107.075 46.6421 102.3 47.3402C97.7482 48.0104 93.2803 47.7591 88.7567 47.0889C80.6587 45.9161 73.0076 43.2913 65.3844 40.5268C60.4418 38.7397 55.4155 37.2876 50.2217 36.4778C43.9946 35.5284 37.7955 35.5284 31.7361 37.6786C29.8372 38.3487 28.0222 39.2144 26.4305 40.471C25.5369 41.1691 24.5596 41.0294 23.9453 40.3313C23.3868 39.6891 23.3868 38.7118 24.1687 37.9857C25.7045 36.4778 27.6592 35.6401 29.5859 34.8583C35.3662 32.4847 41.4815 32.373 47.541 32.8757C55.4993 33.5179 63.0387 36.0031 70.4665 38.8514C75.9117 40.9457 81.5244 42.5373 87.2767 43.5984C90.9347 44.2686 94.6765 44.8271 98.3904 44.4641C104.338 43.9056 110.146 42.8724 115.312 39.5215C119.445 36.8409 121.483 32.9594 122.182 28.1844C122.461 26.3135 122.489 24.4706 122.209 22.5717C122.014 21.2035 121.372 20.282 120.394 19.4722C116.206 15.8979 111.766 12.7146 106.768 10.3411C101.071 7.60453 95.0954 5.67778 88.7846 4.86799C85.4896 4.44913 82.2225 3.9465 78.8995 4.08612C70.8295 4.39328 63.0387 5.87325 55.611 9.11242C49.8587 11.6256 44.609 14.8927 39.9457 19.0813C39.1359 19.8073 38.2982 20.5333 37.4884 21.3152C36.7065 22.0691 35.3103 22.2087 34.8077 21.4269C34.2771 20.6171 34.333 19.7514 35.1148 18.9416C38.9404 15.0323 43.2686 11.8769 47.9878 9.16827C53.3212 6.09664 59.0177 3.9465 64.9934 2.52238C67.702 1.88013 70.4665 1.51712 73.2589 1.20996C76.6098 0.846946 79.9327 0.986565 83.2556 1.01449C87.8352 1.07034 92.3309 1.93598 96.7708 3.08086C101.574 4.33743 106.125 6.18041 110.481 8.52602C114.558 10.7041 118.328 13.3569 121.846 16.4006C126.147 20.1424 129.805 24.4147 132.904 29.1618C136.395 34.5232 138.88 40.3313 140.444 46.5304C140.695 47.5357 140.137 48.4293 138.992 48.5968C137.847 48.7644 137.149 47.9546 136.953 46.9772C136.646 45.4973 136.171 44.0731 135.697 42.649C133.63 36.5895 130.587 31.0606 126.482 26.1181C126.37 25.9226 126.398 25.4758 125.895 25.4479Z" fill="white"/>
<path d="M137.707 70.7122C138.433 67.2496 138.768 63.8988 138.685 60.5479C138.657 59.2634 139.494 58.677 140.751 58.7608C141.728 58.8445 142.371 59.7381 142.259 60.9947C141.868 65.1833 141.672 69.3719 140.611 73.4767C138.852 80.2901 135.836 86.4613 131.648 92.1019C129.218 95.369 126.398 98.301 123.466 101.121C122.321 102.21 121.316 102.266 120.506 101.289C119.864 100.507 120.255 99.4738 121.288 98.5244C123.969 96.0392 126.398 93.3306 128.576 90.3986C131.983 85.847 134.747 80.9324 136.451 75.4593C136.702 74.6495 136.562 74.3144 135.976 73.7559C133.211 71.1869 129.916 69.9862 126.203 69.5953C121.4 69.0926 116.988 70.405 112.687 72.2759C108.499 74.091 104.897 76.7996 101.434 79.7875C95.2629 85.1489 89.7061 91.1246 83.9258 96.8769C82.4738 98.3289 81.0496 99.8648 79.6255 101.401C78.8157 102.266 77.978 102.573 77.0286 101.624C76.0792 100.675 76.4143 99.8927 77.2241 99.027C81.8315 94.1404 86.3273 89.142 91.2139 84.5345C95.6818 80.318 100.038 75.9061 105.204 72.4714C110.09 69.2043 115.424 66.9425 121.288 66.3282C127.208 65.7138 132.876 66.6353 137.707 70.7122Z" fill="white"/>
<path d="M158.734 64.3738C158.734 44.0731 158.734 23.7445 158.734 3.4438C158.734 2.43854 158.79 1.54498 160.13 1.5729C161.191 1.5729 161.778 2.04761 161.806 3.13664C161.806 3.36003 161.806 3.61135 161.806 3.83474C161.806 44.2685 161.806 84.7024 161.806 125.136C161.806 126.895 160.996 127.733 159.711 127.286C159.125 127.091 158.622 126.784 158.734 126.002C158.79 125.695 158.734 125.36 158.734 125.024C158.734 104.808 158.734 84.5907 158.734 64.3738Z" fill="white"/>
<path d="M0.824272 132.369C0.684653 131.81 1.01974 131.447 1.41067 131.084C5.04078 127.566 8.55919 123.964 12.301 120.557C14.0323 118.965 15.6519 117.262 17.4111 115.67C20.2314 113.129 22.9121 110.449 25.5928 107.768C25.872 107.489 26.2629 107.293 26.598 107.07C27.4078 106.539 28.2176 106.595 28.8319 107.293C29.5021 108.075 29.4184 108.941 28.6923 109.639C25.4811 112.71 22.2698 115.726 19.0307 118.798C18.8631 118.965 18.6956 119.105 18.528 119.273C14.6466 123.07 10.7652 126.84 6.88376 130.61C5.85057 131.615 4.78947 132.564 3.70043 133.486C3.16988 133.933 2.58348 134.268 1.82953 133.849C1.21521 133.542 0.712577 133.207 0.824272 132.369Z" fill="white"/>
<path d="M31.5964 115.921C30.7587 116.061 30.3677 115.586 30.0047 114.916C29.6138 114.162 30.0606 113.631 30.4794 113.212C32.6296 111.174 34.5005 108.856 36.874 107.041C36.9857 106.957 37.0695 106.846 37.1812 106.762C40.5041 103.523 43.8271 100.311 47.15 97.0722C49.719 94.587 52.288 92.1297 54.857 89.6445C55.7506 88.7788 57.1747 88.6113 57.8449 89.2536C58.5709 89.9237 58.4033 91.2082 57.3422 92.1576C52.7348 96.3741 48.3228 100.814 43.7712 105.086C41.5373 107.181 39.4709 109.443 37.1812 111.453C35.7291 112.738 34.305 114.078 32.9647 115.446C32.5737 115.865 32.1549 115.977 31.5964 115.921Z" fill="white"/>
<path d="M56.337 123.433C55.611 123.545 54.9408 123.405 54.7453 122.679C54.494 121.786 54.6616 120.864 55.4993 120.334C56.5325 119.663 57.2864 118.742 58.152 117.904C61.5308 114.665 64.7979 111.314 68.2326 108.159C70.0756 106.483 71.8068 104.696 73.6219 102.993C74.9064 101.792 76.3305 101.988 76.8611 103.384C77.2799 104.473 76.6097 105.199 75.8558 105.702C75.2415 106.12 74.7109 106.651 74.2083 107.154C70.4106 110.84 66.7247 114.581 62.8433 118.156C61.1678 119.691 59.5482 121.283 57.9566 122.847C57.4539 123.349 56.9513 123.545 56.337 123.433Z" fill="white"/>
<path d="M74.0966 126.505C73.2589 126.588 72.5608 126.365 72.3095 125.527C72.0582 124.718 72.2816 123.992 73.0076 123.461C73.2589 123.266 73.5381 123.098 73.7615 122.875C77.6429 119.105 81.4685 115.251 85.4337 111.538C87.3605 109.722 89.2593 107.907 91.1581 106.064C92.1634 105.087 93.2803 105.003 94.0901 105.813C94.872 106.595 94.7882 107.544 93.6713 108.55C89.1476 112.71 84.7635 117.039 80.2957 121.283C78.7041 122.819 77.0845 124.355 75.4928 125.89C75.1019 126.337 74.683 126.644 74.0966 126.505Z" fill="white"/>
<path d="M54.9687 111.202C54.857 110.671 55.1363 110.28 55.5272 109.917C59.0456 106.51 62.564 103.076 66.0824 99.6691C66.9202 98.8593 68.1767 98.8314 68.8748 99.5853C69.4892 100.228 69.3216 101.652 68.456 102.294C66.3058 103.914 64.6025 106.036 62.6478 107.851C61.0841 109.303 59.5762 110.783 58.0124 112.207C57.454 112.71 56.8676 113.128 56.0298 112.682C55.3876 112.374 54.857 112.039 54.9687 111.202Z" fill="white"/>
<path d="M31.1496 42.5932C31.9873 42.3977 32.4062 42.9283 32.7692 43.4588C33.1601 44.0453 32.825 44.6875 32.4341 45.0784C30.8983 46.5863 29.4183 48.2059 27.7708 49.6021C25.8999 51.1938 24.2524 53.0367 22.5211 54.768C22.1302 55.159 21.7113 55.494 21.2366 55.8012C20.2593 56.4155 19.4774 56.1921 18.8352 55.3824C18.165 54.5446 18.4721 53.7069 19.1702 53.1205C21.1808 51.3334 23.0796 49.4625 24.9784 47.5916C26.5422 46.0278 28.2176 44.5758 29.7813 43.0121C30.2281 42.5932 30.647 42.5094 31.1496 42.5932Z" fill="white"/>
<path d="M108.834 115.307C108.722 116.424 108.22 117.038 107.075 117.038C105.93 117.038 105.092 116.284 105.176 115.307C105.288 114.246 105.93 113.687 107.019 113.687C108.164 113.66 108.694 114.274 108.834 115.307Z" fill="white"/>
<path d="M16.8247 48.7081C15.5961 48.8198 15.1214 47.9821 15.0934 47.0327C15.0655 45.9716 15.7915 45.3294 16.8806 45.3852C17.83 45.4411 18.6956 45.7761 18.6956 47.0048C18.6677 48.0938 17.9975 48.7081 16.8247 48.7081Z" fill="white"/>
<path d="M51.2269 87.1878C50.5009 87.0761 49.8586 86.5455 49.9424 85.4006C49.9982 84.3675 50.6126 83.8369 51.6457 83.8369C52.7906 83.8369 53.5725 84.5629 53.5725 85.5403C53.5166 86.5455 52.6789 87.2157 51.2269 87.1878Z" fill="white"/>
<path d="M88.4774 122.903C87.2208 122.903 86.5227 122.456 86.4948 121.311C86.4669 120.25 87.2767 119.496 88.3378 119.552C89.3989 119.608 90.1249 120.194 90.069 121.255C90.0132 122.232 89.5106 123.014 88.4774 122.903Z" fill="white"/>
<path d="M21.8231 74.9293C20.5665 74.9572 19.7846 74.2312 19.8126 73.17C19.8405 72.1369 20.4548 71.6063 21.488 71.6063C22.6049 71.5784 23.4427 72.2486 23.4147 73.2538C23.3589 74.3149 22.6887 74.8176 21.8231 74.9293Z" fill="white"/>
<path d="M24.2803 103.104C24.2245 104.305 23.4147 104.696 22.4374 104.752C21.4042 104.836 20.5106 103.97 20.6502 102.937C20.7899 101.959 21.3483 101.317 22.5491 101.401C23.6939 101.485 24.1966 102.043 24.2803 103.104Z" fill="white"/>
<path d="M40.197 94.9784C41.2301 94.8667 41.7328 95.6486 41.7886 96.6259C41.8445 97.687 41.1464 98.2734 40.0853 98.3293C39.0241 98.3851 38.2144 97.6591 38.2144 96.598C38.2423 95.4531 38.9404 95.0063 40.197 94.9784Z" fill="white"/>
<path d="M14.507 91.9623C13.2504 91.9344 12.5523 91.4876 12.5523 90.3427C12.5244 89.2816 13.3621 88.5556 14.4232 88.6114C15.4843 88.6673 16.2103 89.2816 16.1266 90.3427C16.0428 91.2921 15.5402 92.074 14.507 91.9623Z" fill="white"/>
<path d="M34.3888 93.3305C33.1601 93.4422 32.7134 92.6045 32.6575 91.6551C32.6296 90.594 33.3556 90.0076 34.4167 90.0076C35.4778 89.9796 36.2318 90.7615 36.2318 91.8226C36.2318 92.7162 35.5058 93.3305 34.3888 93.3305Z" fill="white"/>
<path d="M24.5875 89.422C25.6486 89.3382 26.1233 90.148 26.1513 91.0974C26.1792 92.1585 25.4532 92.7449 24.3921 92.7729C23.3309 92.8008 22.5212 92.0189 22.577 90.9857C22.6608 89.8408 23.3589 89.3941 24.5875 89.422Z" fill="white"/>
<path d="M21.2645 41.1692C22.3536 41.1413 23.1913 41.8673 23.1075 42.8726C23.0237 43.9337 22.3815 44.5201 21.2925 44.5201C20.2313 44.4922 19.5053 43.9058 19.5332 42.8726C19.5891 41.8952 20.0638 41.0575 21.2645 41.1692Z" fill="white"/>
<path d="M43.8829 91.376C44.9161 91.376 45.8655 92.102 45.698 92.9397C45.5025 93.8053 45.1674 94.7827 43.9667 94.6989C43.0173 94.6431 42.1517 94.3638 42.0958 93.1352C42.0679 92.0741 42.7381 91.4039 43.8829 91.376Z" fill="white"/>
<path d="M55.1642 79.9551C56.6442 79.9551 57.4819 80.6532 57.426 81.6305C57.3702 82.6916 56.7279 83.278 55.6389 83.3059C54.5778 83.3339 53.7959 82.5799 53.8238 81.5467C53.8518 80.4577 54.5219 80.0109 55.1642 79.9551Z" fill="white"/>
<path d="M49.6632 89.4219C49.4677 90.3155 48.9092 90.8739 47.7923 90.846C46.6474 90.8181 46.061 90.0642 46.0889 89.1147C46.1168 88.0536 46.8429 87.4114 48.0157 87.4672C49.1605 87.551 49.6352 88.1933 49.6632 89.4219Z" fill="white"/>
<path d="M18.7234 105.311C19.7008 105.199 20.1476 105.953 20.2872 106.847C20.4547 107.852 19.5612 108.662 18.528 108.662C17.4669 108.662 16.6571 107.936 16.7129 106.875C16.7967 105.758 17.4948 105.311 18.7234 105.311Z" fill="white"/>
<path d="M26.1792 100.871C25.4252 100.815 24.8109 100.312 24.8109 99.1675C24.8109 98.1343 25.3694 97.5759 26.4305 97.52C27.6033 97.4362 28.2456 98.0785 28.3852 99.1396C28.5248 100.117 27.6592 100.843 26.1792 100.871Z" fill="white"/>
<path d="M14.2556 71.5778C14.116 72.611 13.6134 73.2811 12.4685 73.2532C11.3515 73.2253 10.4859 72.4713 10.6255 71.5219C10.7651 70.5446 11.3515 69.9023 12.4685 69.9023C13.6134 69.9023 14.116 70.5167 14.2556 71.5778Z" fill="white"/>
<path d="M56.5324 102.267C55.8064 102.183 55.1642 101.653 55.22 100.536C55.2759 99.5026 55.8343 98.9442 56.8675 98.9442C58.0124 98.9162 58.7943 99.6143 58.7943 100.62C58.8222 101.597 58.0403 102.267 56.5324 102.267Z" fill="white"/>
<path d="M16.6571 69.3446C15.4005 69.3167 14.7303 68.6465 14.7862 67.5854C14.8141 66.3567 15.7077 66.1054 16.6571 66.0216C17.4669 65.9658 18.528 67.0269 18.3604 67.7529C18.1091 68.6186 17.8299 69.5959 16.6571 69.3446Z" fill="white"/>
<path d="M46.7032 81.6308C45.6421 81.6308 44.944 81.184 44.8882 80.0391C44.8602 79.0338 45.7259 78.1682 46.7311 78.3078C47.6806 78.4195 48.4904 78.8384 48.4904 79.9833C48.5183 80.9606 47.7643 81.6028 46.7032 81.6308Z" fill="white"/>
<path d="M52.7348 102.826C54.0193 102.826 54.6615 103.44 54.6615 104.557C54.6615 105.785 53.768 106.065 52.8465 106.148C51.6737 106.26 51.1431 105.311 51.1431 104.445C51.1431 103.607 51.5341 102.574 52.7348 102.826Z" fill="white"/>
<path d="M29.5021 67.3894C28.3852 67.3615 27.5195 66.6075 27.6312 65.6581C27.7709 64.597 28.4131 64.0385 29.5021 64.0664C30.5074 64.0944 31.2893 64.9041 31.2334 65.8256C31.1776 66.7192 30.4236 67.4173 29.5021 67.3894Z" fill="white"/>
<path d="M88.3378 99.7529C89.3989 99.7809 90.097 100.228 90.097 101.373C90.097 102.35 89.2034 103.215 88.2261 103.076C87.3605 102.936 86.5507 102.601 86.4948 101.484C86.439 100.479 87.2208 99.7529 88.3378 99.7529Z" fill="white"/>
<path d="M58.2916 77.3581C58.2637 76.4366 59.1852 75.4034 60.0788 75.543C60.9444 75.6826 61.7542 76.1574 61.8938 77.1347C62.0055 78.0283 60.9444 79.1731 60.1067 79.0056C59.241 78.838 58.2916 78.5588 58.2916 77.3581Z" fill="white"/>
<path d="M99.9262 108.689C101.127 108.494 101.63 109.248 101.797 110.197C101.937 110.923 100.764 111.984 100.01 111.984C98.9768 111.984 98.167 111.23 98.2228 110.197C98.2507 109.136 98.7254 108.466 99.9262 108.689Z" fill="white"/>
<path d="M114.67 109.499C113.469 109.722 113.218 108.717 113.05 107.824C112.911 107.126 114.139 106.064 114.949 106.176C115.843 106.288 116.625 106.651 116.625 107.824C116.597 109.08 115.955 109.555 114.67 109.499Z" fill="white"/>
<path d="M59.1294 96.9047C58.9898 95.5365 59.8275 95.2852 60.8607 95.2852C61.8939 95.2852 62.4803 95.8716 62.4803 96.9327C62.4803 98.0496 61.8939 98.636 60.7769 98.636C59.6041 98.6081 58.9339 98.1334 59.1294 96.9047Z" fill="white"/>
<path d="M82.5855 105.059C82.39 103.831 83.3953 103.579 84.2888 103.44C85.322 103.3 85.9084 104.166 85.9643 105.311C86.0201 106.623 85.0428 106.846 84.1771 106.93C83.1719 107.014 82.5576 106.204 82.5855 105.059Z" fill="white"/>
<path d="M36.0642 98.916C37.237 98.8322 37.6559 99.3348 37.6838 100.452C37.6838 101.653 36.9857 102.099 36.0084 102.211C35.0031 102.323 34.3329 101.457 34.305 100.34C34.2771 99.0556 35.031 98.8322 36.0642 98.916Z" fill="white"/>
<path d="M20.0639 86.4895C20.3431 87.7461 19.3658 88.0532 18.5001 88.2487C17.5228 88.4442 16.8247 87.5785 16.7409 86.4895C16.6292 85.205 17.5507 84.7861 18.4164 84.7861C19.2262 84.7861 20.2593 85.1491 20.0639 86.4895Z" fill="white"/>
<path d="M28.9437 57.6162C27.6033 57.6442 27.0169 57.0857 27.0448 55.885C27.0448 54.7121 27.8826 54.405 28.7482 54.2933C29.6697 54.1816 30.6191 55.2427 30.5632 56.1363C30.5353 57.0857 29.8651 57.6442 28.9437 57.6162Z" fill="white"/>
<path d="M12.664 103.663C11.4633 103.775 10.9327 102.993 10.9048 102.016C10.8769 100.983 11.7705 100.536 12.6361 100.368C13.5017 100.201 14.507 101.262 14.4791 102.155C14.4791 103.189 13.9206 103.663 12.664 103.663Z" fill="white"/>
<path d="M24.4758 61.8051C23.3589 61.861 22.6328 61.47 22.6049 60.2972C22.577 59.2361 23.3589 58.4542 24.392 58.4822C25.146 58.4822 26.3188 59.5712 26.1792 60.2972C26.0116 61.1908 25.5648 61.9447 24.4758 61.8051Z" fill="white"/>
<path d="M120.478 104.5C120.367 105.059 119.836 105.645 118.719 105.617C117.658 105.589 117.099 105.003 116.988 104.054C116.904 103.076 117.853 102.155 118.803 102.294C119.752 102.406 120.618 102.769 120.478 104.5Z" fill="white"/>
<path d="M33.7466 104.361C33.7466 105.226 32.7413 106.204 31.8757 106.148C31.0938 106.12 30.0327 105.031 30.1444 104.305C30.3119 103.355 30.9262 102.769 31.8757 102.657C32.853 102.546 33.7466 103.411 33.7466 104.361Z" fill="white"/>
<path d="M38.1026 89.7008C36.8182 89.8404 36.5668 89.0027 36.5389 87.9975C36.511 86.8526 37.3208 86.4896 38.2143 86.3779C39.2196 86.2662 39.9177 87.1318 39.8898 88.2488C39.8619 89.4495 39.5268 89.7288 38.1026 89.7008Z" fill="white"/>
<path d="M16.5174 96.7096C17.411 96.7375 18.5 97.7986 18.3604 98.5805C18.1649 99.6137 17.411 100.256 16.4616 100.2C15.5959 100.144 14.7303 99.6416 14.7582 98.4688C14.7862 97.6311 15.7076 96.6817 16.5174 96.7096Z" fill="white"/>
<path d="M103.975 107.823C102.914 107.879 102.16 107.516 102.132 106.343C102.076 105.31 102.858 104.5 103.891 104.5C104.645 104.5 105.706 105.533 105.734 106.287C105.734 107.097 104.925 107.823 103.975 107.823Z" fill="white"/>
<path d="M22.1302 81.3518C23.303 81.3239 23.9453 81.7707 23.9732 82.9156C23.9732 84.1163 23.0796 84.4514 22.186 84.6468C21.46 84.8144 20.2314 83.6137 20.371 82.9435C20.5665 81.9662 21.0132 81.1843 22.1302 81.3518Z" fill="white"/>
<path d="M14.479 50.719C14.5349 51.8639 14.116 52.5899 12.8873 52.6178C11.7704 52.6457 11.184 52.0593 11.1561 50.9703C11.1281 49.8813 11.7425 49.2669 12.8315 49.2949C13.753 49.2949 14.5907 49.5183 14.479 50.719Z" fill="white"/>
<path d="M26.263 77.4141C27.352 77.3304 27.8546 77.7771 27.9105 78.922C27.9384 80.1228 27.2682 80.5975 26.2909 80.7371C25.3136 80.9046 24.5875 80.0111 24.5317 78.95C24.4479 77.6375 25.3136 77.4979 26.263 77.4141Z" fill="white"/>
<path d="M112.743 112.012C112.799 112.626 112.352 113.157 111.207 113.157C110.063 113.157 109.392 112.766 109.364 111.509C109.337 110.28 110.146 109.889 111.096 109.834C112.185 109.75 112.687 110.476 112.743 112.012Z" fill="white"/>
<path d="M45.1954 110.337C46.2006 110.225 46.6474 110.979 46.815 111.957C46.9267 112.627 45.7259 113.772 44.972 113.66C44.0226 113.52 43.1849 113.13 43.2128 111.957C43.2686 110.84 43.9388 110.365 45.1954 110.337Z" fill="white"/>
<path d="M97.9157 113.883C97.9715 115.027 97.05 115.335 96.1565 115.502C95.3467 115.642 94.3135 114.664 94.2856 113.855C94.2576 113.045 95.3188 111.956 96.2123 112.068C97.1897 112.179 97.9436 112.682 97.9157 113.883Z" fill="white"/>
<path d="M63.0387 92.8838C62.927 91.6552 63.7089 91.4039 64.6583 91.376C65.7753 91.348 66.3617 91.9344 66.3617 93.0514C66.3617 94.1404 65.7753 94.7268 64.6583 94.7268C63.4297 94.7268 62.9829 94.0287 63.0387 92.8838Z" fill="white"/>
<path d="M44.0505 84.4227C43.9667 85.5118 43.1569 85.9027 42.2913 86.0144C41.3977 86.1261 40.2807 84.9533 40.4483 84.1714C40.6717 83.222 41.3139 82.5518 42.375 82.6635C43.4082 82.7473 44.1622 83.222 44.0505 84.4227Z" fill="white"/>
<path d="M32.7413 81.3234C33.97 81.2955 34.5843 81.826 34.5843 83.0547C34.5843 84.2275 33.7466 84.6184 32.8809 84.6184C31.9036 84.6184 31.2055 84.06 31.2055 82.8592C31.2334 81.7423 31.7081 81.2396 32.7413 81.3234Z" fill="white"/>
<path d="M28.3852 85.5117C29.5021 85.5117 30.1164 86.0143 30.0885 87.1592C30.0606 88.2762 29.5021 88.8626 28.3852 88.8626C27.324 88.8626 26.7935 88.2762 26.7376 87.243C26.7097 86.0981 27.2961 85.5396 28.3852 85.5117Z" fill="white"/>
<path d="M92.2471 96.1238C93.3641 96.04 93.755 96.6544 93.755 97.7434C93.755 98.972 92.9732 99.4467 92.0237 99.4188C91.1302 99.4188 90.3762 98.9441 90.3762 97.7713C90.4041 96.5427 91.0743 96.068 92.2471 96.1238Z" fill="white"/>
<path d="M32.0711 95.5095C32.0153 96.7661 31.4289 97.2687 30.3119 97.2408C29.167 97.2129 28.6644 96.5986 28.6923 95.5095C28.7482 94.4484 29.3066 93.9179 30.3678 93.9179C31.5126 93.8899 32.0432 94.5322 32.0711 95.5095Z" fill="white"/>
<path d="M47.4013 107.963C47.3455 106.762 47.9877 106.399 49.0488 106.427C50.1658 106.455 50.7522 106.93 50.7522 108.103C50.7522 109.08 49.9424 109.862 48.993 109.806C48.0156 109.722 47.4013 108.996 47.4013 107.963Z" fill="white"/>
<path d="M18.9469 94.6151C18.8631 93.554 19.3099 93.0234 20.4547 93.0234C21.6275 93.0234 22.2698 93.4423 22.2977 94.6989C22.3256 95.8438 21.5438 96.3185 20.6502 96.3185C19.7287 96.3464 18.8631 95.8996 18.9469 94.6151Z" fill="white"/>
<path d="M95.9331 92.2414C97.2734 92.1297 97.6644 92.7161 97.6644 93.8889C97.6364 95.0338 96.9383 95.5643 96.0448 95.5085C95.2071 95.4526 94.1739 95.2013 94.2856 93.8889C94.3693 92.744 94.7323 91.9621 95.9331 92.2414Z" fill="white"/>
<path d="M30.7308 73.2535C31.9315 73.1418 32.3504 73.7002 32.3783 74.873C32.4062 76.1855 31.4568 76.4926 30.6191 76.4926C29.7534 76.4647 28.9157 76.0179 28.9716 74.7613C29.0274 73.5048 29.6418 73.1418 30.7308 73.2535Z" fill="white"/>
<path d="M93.7271 117.708C93.8109 118.825 93.3082 119.3 92.1634 119.3C90.9906 119.272 90.3762 118.825 90.3762 117.597C90.3762 116.452 91.1581 116.005 92.0517 116.005C93.029 115.977 93.8388 116.48 93.7271 117.708Z" fill="white"/>
<path d="M104.952 118.909C104.785 120.054 104.282 120.696 103.165 120.668C102.02 120.64 101.546 120.026 101.574 118.909C101.602 117.848 102.132 117.317 103.193 117.317C104.31 117.289 104.757 117.959 104.952 118.909Z" fill="white"/>
<path d="M20.1476 65.7141C19.0306 65.7979 18.6397 65.1836 18.6397 64.0946C18.6397 62.8659 19.4216 62.3912 20.371 62.4191C21.2646 62.4191 22.0185 62.8938 22.0185 64.0666C22.0185 65.2953 21.3483 65.77 20.1476 65.7141Z" fill="white"/>
<path d="M25.9558 67.6689C26.7377 67.7806 27.3799 68.3112 27.3241 69.4282C27.2682 70.4613 26.6818 71.0198 25.6486 70.9919C24.5596 70.964 23.9732 70.3776 23.9732 69.2885C23.9732 68.1437 24.5875 67.6689 25.9558 67.6689Z" fill="white"/>
<path d="M80.5749 110.336C79.3742 110.364 78.6761 109.973 78.6761 108.801C78.6482 107.767 79.458 106.985 80.4912 107.013C81.301 107.041 82.3341 108.047 82.1666 108.856C81.9991 109.722 81.664 110.588 80.5749 110.336Z" fill="white"/>
</svg>
