<svg width="257" height="102" viewBox="0 0 257 102" fill="none" xmlns="http://www.w3.org/2000/svg">
<path fill-rule="evenodd" clip-rule="evenodd" d="M13.4957 32.5367H0.447266V72.5571H42.1292C42.1292 72.5571 68.6138 71.9368 74.5841 48.2436C80.5545 24.5504 66.7196 13.252 66.7196 13.252H119.611L78.9262 72.5571H95.4528L127.11 24.639L150.803 59.8964H127.708L119.523 72.546H248.711L256.941 60.0182H212.822C206.586 60.0182 198.722 59.4201 191.577 52.4749C184.433 45.5298 183.347 29.8008 189.76 21.5707C196.174 13.3407 209.377 13.3407 209.377 13.3407L217.696 13.5179H248.711V0.414062H210.529C207.86 0.414062 200.76 0.823903 200.76 0.823903C182.162 2.77342 171.539 18.0926 169.501 33.301C167.463 48.5094 178.362 60.0293 178.362 60.0293H168.183L128.506 0.414062H0.447266V13.385H37.1446C39.5471 13.4297 41.9322 13.8023 44.2338 14.4926C62.1117 20.6624 61.7018 34.8407 61.7018 34.8407C61.7018 57.8693 40.8443 59.5641 40.8443 59.5641H13.4957V32.5367ZM193.925 84.9744L195.509 83.2132C194.712 82.6556 193.812 82.2618 192.861 82.0545C191.91 81.8473 190.928 81.8307 189.971 82.0058C189.238 82.1315 188.541 82.4156 187.928 82.8383C187.316 83.2609 186.803 83.812 186.426 84.4532C186.048 85.0943 185.815 85.81 185.742 86.5505C185.67 87.2909 185.76 88.0383 186.005 88.7405C186.659 90.4685 187.866 91.2771 190.525 92.1854C193.183 93.0937 194.468 95.3755 193.582 97.1035C192.696 98.8314 189.616 99.8948 187.013 97.325L185.352 99.2413C185.352 99.2413 189.362 102.886 193.294 100.748C197.226 98.6099 197.525 93.7804 194.756 91.9971C193.811 91.327 192.843 90.8809 191.956 90.472C189.91 89.5292 188.294 88.7847 188.387 85.9492C189.561 82.6261 193.46 84.2876 193.925 84.9744ZM175.903 82.0068C177.571 82.0253 179.222 82.3442 180.777 82.9484V85.784C179.301 84.8283 177.56 84.3631 175.804 84.4548C169.723 84.5988 167.585 92.1421 170.897 96.5949C174.209 101.048 180.777 97.8909 180.777 97.8909V100.549C172.038 103.54 166.377 98.3672 166.732 91.2449C166.727 90.0361 166.961 88.8383 167.42 87.7198C167.878 86.6013 168.553 85.5842 169.404 84.7263C170.256 83.8685 171.268 83.1868 172.383 82.7202C173.499 82.2536 174.695 82.0112 175.903 82.0068ZM53.5826 100.959H56.6066L64.7037 87.0579L72.8894 100.959H75.7362L64.748 82.3613L53.5826 100.959ZM76.0131 84.5102H80.7982V100.97H83.224V84.5102H87.9981V82.3613H76.0131V84.5102ZM95.4528 82.3613H93.027V100.97H95.4528V92.7178H104.901V100.97H107.327V82.3613H104.901V90.3252H95.4528V82.3613ZM116.299 82.3613H113.873V100.97H114.073V100.971H122.336V98.5781H116.299V82.3613ZM127.708 82.3613H129.326H130.134H137.434V84.333H130.134V90.5918H137.434V92.5635H130.134V98.9873H137.434V100.959H130.134V100.97H127.708V82.3613ZM141.798 82.3613H146.605H149.031H153.861V84.6099H149.031V100.97H146.605V84.6099H141.798V82.3613ZM158.535 82.3613H160.961V100.97H158.535V82.3613Z" fill="white"/>
</svg>
