<svg width="347" height="139" viewBox="0 0 347 139" fill="none" xmlns="http://www.w3.org/2000/svg">
<path fill-rule="evenodd" clip-rule="evenodd" d="M295.375 1.37812C294.387 5.22881 293.231 12.7381 297.097 18.6142C299.321 22.0166 302.876 24.2982 307.578 25.411C305.981 29.0746 303.182 32.0776 299.647 33.9191C296.112 35.7605 292.056 36.3291 288.154 35.53C290.075 28.9174 289.94 23.0413 287.684 18.0138C285.617 13.6059 282.156 10.0086 277.84 7.7826C279.856 5.15294 282.576 3.15413 285.681 2.01996C288.786 0.885796 292.149 0.663167 295.375 1.37812ZM308.535 22.4168C304.549 21.4561 301.568 19.6148 299.767 16.8849C296.643 12.1616 297.591 5.80511 298.428 2.38672C301.564 3.733 304.237 5.97519 306.114 8.83463C307.992 11.6941 308.991 15.0447 308.989 18.47C308.989 19.7987 308.836 21.1231 308.535 22.4168ZM41.0022 87.4967C41.0664 85.3365 41.1161 83.0541 41.1512 80.6496C41.1991 77.1058 41.223 73.103 41.223 68.6412C41.223 63.6884 41.1778 59.1972 41.0875 55.1677C41.0703 54.4033 41.0512 53.6544 41.03 52.9209C30.6851 67.521 35.7561 81.642 41.0022 87.4967ZM85.8174 111.04C85.8174 111.04 66.4333 105.073 50.4251 94.6619C51.1669 94.7292 51.907 94.8165 52.6446 94.9236C52.517 93.4185 52.4055 91.6493 52.3178 89.752C52.2301 87.8546 52.1663 85.573 52.1185 83.0513C52.076 80.0892 52.0601 75.985 52.0707 70.7386C52.076 66.4637 52.1318 61.9939 52.2381 57.3292C52.3443 52.6646 52.5064 48.3443 52.7243 44.3682C51.983 44.4642 51.0903 44.5603 50.0462 44.6564C49.5454 44.7024 49.0354 44.7375 48.5154 44.7614C51.3248 42.3087 54.6559 39.8837 58.5825 37.5241C80.5011 24.579 142.009 7.30288 209.359 6.10204C209.359 6.10204 162.333 -0.302447 97.5737 12.9068C51.6818 24.0449 28.1379 38.8508 23.3153 57.8269C21.0124 57.9114 18.1478 57.9537 14.7213 57.9537V49.1475V45.8332C14.7479 44.7925 14.7904 43.0419 14.8489 40.5815C14.9286 39.9731 14.9286 39.4207 14.9286 38.9244C18.0131 38.9244 20.9781 38.9884 23.8395 39.1085C27.0176 39.2686 30.1842 39.6081 33.3243 40.1252C33.0604 38.667 32.9244 37.1883 32.9178 35.7061C32.9414 34.132 33.0773 32.5615 33.3243 31.0068C29.7535 31.255 26.3342 31.4311 23.0584 31.5592C19.7826 31.6873 16.7139 31.7434 13.8605 31.7434C9.25578 31.8034 4.65212 31.5573 0.0797041 31.0068C0.467597 37.0271 0.661544 41.9692 0.661544 45.8332L0.741248 81.3541C0.811517 85.8758 0.563818 90.3969 0 94.8836C3.62919 94.5153 6.37898 94.3312 8.24937 94.3312C10.6264 94.2766 13.0028 94.4616 15.343 94.8836C15.0418 92.7609 14.8635 90.6225 14.809 88.4791C14.6815 86.0294 14.6815 83.5076 14.6815 80.9298V65.0227C17.7392 65.0197 20.3047 65.0321 22.3782 65.0599C22.3673 65.9467 22.3922 66.8418 22.4526 67.7452C23.2265 77.1701 30.0118 85.6761 40.7563 92.8913C40.7011 93.6506 40.6388 94.3281 40.5694 94.9236C41.5215 94.7889 42.4774 94.6856 43.4357 94.6138C54.5683 101.472 69.3375 107.063 85.8174 111.04ZM90.9902 62.7567C90.3986 64.2206 89.5111 65.5455 88.3838 66.6474C87.3934 67.6327 86.2458 68.4444 84.9884 69.0491C83.9458 69.5613 82.8341 69.9173 81.6887 70.1058L91.8111 87.9583C92.3947 88.9842 93.1485 90.1586 94.0939 91.4817C94.4359 90.0651 94.6957 88.6295 94.8717 87.1821C95.1033 85.5426 95.2337 83.8903 95.2623 82.2346H96.8564C97.0684 83.647 97.5472 85.0057 98.2672 86.2375C98.8668 87.2842 99.682 88.1904 100.658 88.8953C101.562 89.513 102.561 89.9756 103.615 90.2643C104.604 90.5418 105.624 90.687 106.65 90.6962C106.456 90.5829 106.262 90.4274 106.07 90.2244C105.074 89.1596 103.153 85.5571 110.055 83.5557C111.005 83.2242 111.992 82.8729 113.017 82.5083L113.024 82.506L113.027 82.5048L113.029 82.5043L113.036 82.5018L113.037 82.5014C113.521 82.3292 114.013 82.1539 114.514 81.9764C114.432 81.5723 114.311 81.1762 114.152 80.7936C113.787 80.0084 113.241 79.3222 112.558 78.7922C111.647 78.0854 110.673 77.4637 109.649 76.9349C108.475 76.3052 106.734 75.4299 104.428 74.3091C101.538 72.9968 98.9917 71.026 96.9919 68.5531C95.2968 66.3222 94.4467 63.3361 94.4414 59.5948C94.4414 54.594 95.8441 50.7192 98.6497 47.9706C101.455 45.222 105.34 43.8504 110.302 43.8558C112.592 43.7914 114.876 44.1107 117.061 44.8004C118.914 45.4783 120.696 46.3335 122.386 47.3542C121.735 48.7238 121.25 50.1672 120.943 51.6532C120.606 53.0681 120.367 54.5044 120.226 55.9522H118.703C118.137 53.4225 117.069 51.6052 115.515 50.4844C113.972 49.3782 112.119 48.7924 110.223 48.8112C109.559 48.8154 108.896 48.8635 108.238 48.9553C107.417 49.0935 106.623 49.3638 105.887 49.7559C105.007 50.1918 104.261 50.8584 103.727 51.6852C103.096 52.7384 102.791 53.9561 102.85 55.1837C102.818 56.2016 103.032 57.2122 103.472 58.1298C103.958 59.0147 104.64 59.776 105.464 60.3553C106.559 61.1464 107.728 61.8275 108.955 62.3887C110.369 63.0666 112.534 64.0646 115.451 65.3828C116.664 65.9718 117.801 66.7056 118.839 67.5684C119.998 68.5213 120.973 69.68 121.716 70.9868C122.417 72.173 122.923 73.4652 123.215 74.8135C123.504 76.1581 123.659 77.5282 123.675 78.9033C127.108 77.8467 130.808 76.8398 134.764 76.0144C134.836 75.9993 134.909 75.9842 134.983 75.9692C134.962 64.5383 134.931 56.094 134.891 50.6364C130.836 50.6154 126.782 50.8346 122.752 51.2928C122.988 50.0692 123.097 48.8244 123.079 47.5782C123.072 46.5028 122.963 45.4305 122.752 44.376C124.346 44.5681 126.706 44.7122 129.83 44.8083C132.954 44.9043 136.469 44.955 140.375 44.9604C144.333 44.9604 147.739 44.9097 150.593 44.8083C153.446 44.7069 155.914 44.5628 157.997 44.376C157.81 45.5305 157.703 46.6969 157.679 47.8664V47.8667C157.679 48.3549 157.679 48.9313 157.774 49.5796C157.817 49.8703 157.849 50.1482 157.879 50.4095L157.879 50.41L157.879 50.4105C157.915 50.7318 157.949 51.0281 157.997 51.2928C156.26 51.0527 154.4 50.8845 152.418 50.7885C150.436 50.6924 148.401 50.6417 146.313 50.6364C146.313 51.538 146.29 52.4981 146.266 53.5165L146.266 53.5183L146.266 53.52C146.247 54.309 146.228 55.133 146.217 55.9921C146.202 57.2462 146.206 58.8282 146.211 60.7401V60.7473V60.7551L146.211 60.7637C146.214 61.8479 146.217 63.0378 146.217 64.334V72.924C146.212 73.456 146.207 73.9747 146.203 74.4801C154.719 73.7368 163.565 73.5696 166.247 73.6127C170.232 73.6768 171.491 74.4213 171.228 76.6869C170.965 78.9525 169.236 79.753 164.326 78.5522C159.823 77.6496 155.224 77.3347 150.641 77.6155C150.641 77.6155 148.812 79.7184 146.154 82.887C146.161 87.2633 146.313 91.2727 146.608 94.9154C145.57 94.7519 144.524 94.6423 143.475 94.5872C142.256 94.5151 141.148 94.4831 140.144 94.4831C139.347 94.4831 138.462 94.4831 137.434 94.5872C137.155 94.6154 136.877 94.6418 136.599 94.6682C133.151 99.1027 129.895 103.558 127.957 106.868C123.677 114.577 121.015 120.71 120.616 124.048C120.533 124.744 120.49 125.593 120.444 126.501L120.444 126.501C120.27 129.951 120.053 134.255 117.428 134.255C114.112 134.255 111.394 130.981 111.92 126.25C112.447 121.518 117.101 110.975 127.463 97.5015C130.376 94.0086 132.84 91.0696 134.869 88.6592C134.89 88.0684 134.908 87.4589 134.923 86.8297C134.961 85.1217 134.979 82.9638 134.985 80.356C131.076 80.7171 127.209 81.4299 123.431 82.4847C122.889 85.9301 121.445 88.8462 119.102 91.233C116.052 94.3391 111.801 95.8789 106.349 95.8522C103.918 95.9178 101.494 95.5742 99.1758 94.8355C97.8205 94.3602 96.5075 93.7737 95.2497 93.0825C95.6539 93.584 96.0865 94.0622 96.5455 94.5149L96.3542 94.9472C94.1051 94.6276 91.8348 94.4831 89.5635 94.5149C88.2563 94.5149 87.1723 94.5149 86.2 94.619C85.7304 94.6692 85.2256 94.7139 84.672 94.7629C84.0791 94.8153 83.4302 94.8727 82.7089 94.9472L82.6451 94.8031C82.2944 93.9305 81.8481 92.8738 81.2742 91.6009C80.5624 90.1114 79.7639 88.6652 78.8831 87.2698L70.0041 71.9071C69.9738 71.8659 69.9356 71.8313 69.8918 71.8052C69.848 71.7791 69.7995 71.762 69.749 71.755C69.7012 71.755 69.6773 71.9071 69.6773 72.1953C69.6773 75.2534 69.7012 78.0474 69.749 80.5771C69.749 82.3335 69.7877 84.1404 69.8273 85.9923L69.8275 85.9982L69.8275 85.999L69.8275 85.9997L69.8275 86.0007C69.8447 86.805 69.8621 87.6178 69.8765 88.4387L69.9403 89.7516C69.9881 92.0332 70.0758 93.7544 70.2033 94.9232C68.2806 94.6278 66.338 94.4833 64.3929 94.4909C63.5959 94.4909 62.6394 94.5389 61.4917 94.635C60.3439 94.7311 59.3237 94.8271 58.455 94.9232C58.5825 93.5622 58.6781 92.1052 58.7499 90.5521C58.8216 88.9991 58.8694 87.2058 58.9093 85.1644C58.9465 82.1062 58.9677 75.9686 58.973 66.7515C58.973 59.9467 58.9518 55.0046 58.9093 51.9251C58.9011 49.4047 58.7494 46.8868 58.455 44.3838C61.3243 44.672 63.6995 44.8161 65.5646 44.8161C66.9195 44.8161 68.96 44.744 71.7018 44.5999C74.4436 44.4558 76.4282 44.3838 77.7752 44.3838C79.0635 44.3923 80.3497 44.4886 81.6249 44.672C83.1954 44.9286 84.7154 45.4339 86.1282 46.169C87.8455 47.0685 89.2803 48.4293 90.2728 50.0998C91.5147 52.2894 92.1143 54.7874 92.0024 57.3048C92.0378 59.1646 91.6933 61.0119 90.9902 62.7326V62.7567ZM112.646 88.5911C111.687 89.6121 110.398 90.2589 108.784 90.5378C109.611 90.0472 110.453 89.1734 111.306 88.2879C112.165 87.3967 113.035 86.4936 113.913 85.9574L114.07 85.886C114.149 85.8505 114.228 85.8151 114.306 85.7798C114.262 85.9218 114.212 86.0626 114.159 86.2018C113.817 87.0909 113.302 87.9031 112.646 88.5911ZM69.6773 67.7522C70.329 67.8132 70.9836 67.8373 71.638 67.8242C72.5881 67.8282 73.5369 67.7559 74.4755 67.6081C75.4843 67.4168 76.4473 67.0336 77.3129 66.4793C78.4078 65.7579 79.2693 64.7312 79.7917 63.5252C80.5117 61.8243 80.8465 59.9841 80.7721 58.1374C80.8247 56.5242 80.5705 54.9156 80.0229 53.3981C79.6247 52.3284 78.934 51.3933 78.0303 50.7002C77.2528 50.142 76.3586 49.7696 75.416 49.6115C74.3789 49.4588 73.3317 49.3865 72.2836 49.3953C71.4549 49.3785 70.6261 49.4267 69.8048 49.5394L69.6773 67.7522ZM196.614 38.7652C198.591 40.1688 199.938 42.4718 200.655 45.674H202.448C202.628 43.8397 202.937 42.0205 203.373 40.2302C203.75 38.3476 204.358 36.5191 205.182 34.7864C203.051 33.503 200.801 32.4306 198.463 31.5841C195.715 30.7393 192.847 30.3578 189.975 30.4553C183.71 30.4607 178.803 32.1952 175.253 35.659C171.704 39.1227 169.929 44.0168 169.929 50.3413C169.929 55.0699 170.992 58.8432 173.117 61.6612C175.645 64.7902 178.865 67.2822 182.522 68.9383C185.44 70.3473 187.639 71.4521 189.122 72.2526C190.412 72.9211 191.64 73.7062 192.788 74.5983C193.668 75.2629 194.377 76.1306 194.853 77.128C195.292 78.1759 195.504 79.3058 195.474 80.4424C195.503 81.6453 195.295 82.8421 194.863 83.9644C194.431 85.0866 193.783 86.1124 192.956 86.9829C191.277 88.7602 188.816 89.6488 185.575 89.6488C184.228 89.6508 182.886 89.4649 181.59 89.0964C180.261 88.7101 179.006 88.104 177.876 87.3032C176.635 86.4094 175.595 85.2639 174.823 83.9408C173.918 82.3829 173.317 80.6656 173.054 78.8813H170.989C170.955 80.9764 170.79 83.0672 170.495 85.1416C170.229 87.3028 169.813 89.4428 169.252 91.5461C171.355 92.8607 173.598 93.9348 175.939 94.7484C178.869 95.6832 181.935 96.1189 185.009 96.0373C191.943 96.032 197.334 94.0839 201.181 90.1932C205.028 86.3025 206.952 81.2536 206.952 75.0466C206.963 73.1632 206.771 71.2842 206.378 69.4427C206.007 67.7493 205.367 66.1273 204.481 64.6393C203.546 62.9848 202.317 61.5168 200.854 60.3083C199.531 59.2164 198.084 58.2865 196.542 57.5383C192.86 55.8785 190.126 54.6216 188.341 53.7677C186.793 53.0473 185.315 52.1843 183.925 51.1899C182.884 50.4573 182.023 49.4963 181.407 48.3799C180.845 47.2191 180.572 45.9392 180.609 44.6493C180.53 43.097 180.919 41.5569 181.725 40.2302C182.401 39.1918 183.339 38.352 184.443 37.7965C185.378 37.3207 186.381 36.9964 187.416 36.8358C188.248 36.7159 189.087 36.6544 189.927 36.6517C192.323 36.6264 194.664 37.3666 196.614 38.7652ZM208.753 53.9827C208.762 50.7713 208.568 47.5625 208.171 44.376L209.151 44.448L217.305 44.8083C219.481 44.9124 221.49 44.9604 223.315 44.9604C225.14 44.9604 226.862 44.9124 228.735 44.8083C230.608 44.7042 232.648 44.5681 234.864 44.376C234.661 45.4799 234.554 46.5997 234.545 47.7223C234.522 48.9444 234.629 50.1656 234.864 51.3649C232.7 50.9441 230.507 50.6899 228.304 50.6043C225.802 50.4816 223.049 50.4202 220.047 50.4202C219.919 53.0461 219.856 55.6399 219.856 58.2177V65.6469C223.203 65.6469 225.911 65.5988 227.978 65.5028C230.131 65.3958 232.278 65.1766 234.41 64.8463C234.207 66.0017 234.098 67.1717 234.083 68.3448C234.116 69.2459 234.204 70.1442 234.346 71.0347C234.386 71.3789 234.41 71.6191 234.41 71.7632C232.231 71.523 230.164 71.3656 228.209 71.2908C226.253 71.2161 223.469 71.1814 219.856 71.1868V85.6849C219.856 86.4054 219.896 87.4542 219.983 88.8151C220.988 88.8151 222.103 88.8151 223.347 88.7751L223.73 88.763L224.068 88.7526C225.085 88.7213 226.128 88.6892 227.196 88.631C228.52 88.5589 229.843 88.4469 231.182 88.3028C232.367 88.1796 233.543 87.9844 234.705 87.7184C234.505 88.8499 234.396 89.9957 234.378 91.1447C234.392 92.4134 234.501 93.6792 234.705 94.9314C232.744 94.7393 230.393 94.5952 227.651 94.4991C224.909 94.403 222.342 94.3523 219.951 94.347C218.076 94.347 216.16 94.3977 214.205 94.4991C212.249 94.6005 210.14 94.7446 207.876 94.9314C208.139 93.2822 208.338 91.0247 208.498 88.1587C208.657 85.2926 208.721 82.6908 208.721 80.3612L208.753 53.9827ZM267.933 66.6474C269.058 65.5432 269.945 64.219 270.54 62.7567V62.7326C271.243 61.0119 271.587 59.1646 271.552 57.3048C271.664 54.7874 271.064 52.2894 269.822 50.0998C268.827 48.4312 267.393 47.0709 265.678 46.169C264.265 45.4339 262.745 44.9286 261.174 44.672C259.899 44.4886 258.613 44.3923 257.325 44.3838C255.97 44.3838 253.993 44.4558 251.251 44.5999C248.509 44.744 246.469 44.8161 245.114 44.8161C243.249 44.8161 240.874 44.672 238.004 44.3838C238.295 46.8872 238.446 49.4048 238.459 51.9251C238.501 55.0046 238.522 59.9467 238.522 66.7515C238.517 75.9686 238.496 82.1062 238.459 85.1644C238.411 87.2058 238.363 88.9991 238.291 90.5521C238.228 92.1052 238.132 93.5622 238.004 94.9232C238.873 94.8271 239.877 94.7311 241.033 94.635C242.189 94.5389 243.145 94.4909 243.942 94.4909C245.887 94.4837 247.83 94.6283 249.753 94.9232C249.617 93.7544 249.53 92.0332 249.49 89.7516L249.426 88.4387C249.388 86.2656 249.354 84.149 249.322 82.0971L249.298 80.5771C249.251 78.0474 249.227 75.2534 249.227 72.1953C249.227 71.9071 249.251 71.755 249.298 71.755C249.349 71.762 249.397 71.7791 249.441 71.8052C249.485 71.8313 249.523 71.8659 249.553 71.9071L258.472 87.2698C259.34 88.6662 260.125 90.1123 260.824 91.6009C261.397 92.8738 261.844 93.9305 262.195 94.8031L262.258 94.9472C262.98 94.8727 263.629 94.8153 264.221 94.7629C264.775 94.7139 265.28 94.6692 265.749 94.619C266.722 94.5149 267.806 94.5149 269.113 94.5149C271.384 94.4831 273.655 94.6276 275.904 94.9472L276.095 94.5149C275.196 93.6439 274.395 92.6776 273.704 91.6329C272.747 90.2506 271.966 89.0257 271.361 87.9583L261.238 70.1058C262.384 69.9173 263.495 69.5613 264.538 69.0491C265.795 68.4444 266.943 67.6327 267.933 66.6474ZM251.187 67.8242C250.533 67.8373 249.878 67.8132 249.227 67.7522L249.362 49.5394C250.183 49.4265 251.012 49.3783 251.841 49.3953C252.889 49.3865 253.936 49.4588 254.973 49.6115C255.916 49.7696 256.81 50.142 257.588 50.7002C258.491 51.3916 259.18 52.3275 259.572 53.3981C260.127 54.914 260.384 56.5234 260.329 58.1374C260.404 59.9841 260.069 61.8243 259.349 63.5252C258.827 64.7312 257.965 65.7579 256.87 66.4793C256.002 67.0346 255.036 67.4178 254.025 67.6081C253.086 67.7556 252.137 67.8279 251.187 67.8242ZM299.424 61.4847C301.343 55.8656 302.979 50.1531 304.326 44.3687C305.727 44.6162 307.144 44.7606 308.566 44.801C309.706 44.7736 310.842 44.6532 311.962 44.4408C312.042 44.3947 312.132 44.3699 312.225 44.3687C308.829 52.1876 305.641 60.3106 302.66 68.7378C299.679 77.1651 296.85 85.9926 294.172 95.2204C292.864 94.925 291.527 94.7773 290.187 94.7801C289.11 94.791 288.038 94.939 286.998 95.2204C286.217 92.0181 284.846 87.5724 282.886 81.883L282.368 80.2819C279.233 71.2996 277.208 65.4849 276.294 62.8377C275.38 60.1905 274.522 57.7621 273.72 55.5526C272.917 53.343 272.208 51.4751 271.592 49.9487L269.312 44.3447C271.586 44.631 273.875 44.7753 276.167 44.777C278.241 44.7749 280.313 44.6304 282.368 44.3447C285.8 56.8708 289.52 68.527 293.526 79.3132L299.424 61.4847ZM313.524 44.376C313.924 47.5624 314.121 50.7711 314.114 53.9827L314.05 80.3612C314.045 82.6935 313.968 85.2926 313.819 88.1587C313.724 90.4253 313.517 92.6857 313.197 94.9314C315.461 94.7393 317.581 94.6032 319.534 94.4991C321.486 94.395 323.407 94.347 325.272 94.347C327.663 94.3523 330.233 94.403 332.98 94.4991C335.727 94.5952 338.075 94.7393 340.026 94.9314C339.826 93.6788 339.717 92.4132 339.699 91.1447C339.721 89.9959 339.83 88.8505 340.026 87.7184C338.864 87.985 337.688 88.1802 336.503 88.3028C335.196 88.4469 333.888 88.5589 332.557 88.631C331.493 88.6886 330.454 88.7206 329.449 88.7516C329.197 88.7594 328.947 88.7671 328.7 88.7751C327.464 88.8151 326.34 88.8151 325.344 88.8151C325.256 87.4542 325.209 86.4054 325.209 85.6849V71.1868C328.787 71.1868 331.617 71.2188 333.57 71.2908C335.522 71.3629 337.595 71.523 339.771 71.7632C339.761 71.5191 339.737 71.2758 339.699 71.0347C339.563 70.1437 339.478 69.2456 339.444 68.3448C339.455 67.1715 339.564 66.0012 339.771 64.8463C337.639 65.1759 335.492 65.395 333.338 65.5028C331.266 65.5988 328.564 65.6469 325.209 65.6469V58.2177C325.209 55.6399 325.272 53.0461 325.408 50.4202C328.41 50.4202 331.163 50.4816 333.665 50.6043C335.868 50.6903 338.061 50.9446 340.225 51.3649C339.987 50.1659 339.877 48.9447 339.898 47.7223C339.91 46.5994 340.019 45.4797 340.225 44.376C338.009 44.5681 335.961 44.7042 334.088 44.8083C332.215 44.9124 330.413 44.9604 328.668 44.9604C326.845 44.9657 324.845 44.915 322.666 44.8083L314.504 44.448L313.524 44.376ZM330.708 125.249C340.998 116.579 344.784 115.378 345.716 115.914V115.939C346.649 116.467 347.247 118.14 344.784 120.47C331.505 131.678 320.076 137.818 315.03 138.018C309.985 138.218 307.466 135.816 306.996 132.814C306.526 129.812 310.121 129.284 312.974 129.348C313.501 129.36 314.043 129.403 314.586 129.447L314.587 129.447C316.985 129.64 319.436 129.838 321.008 127.339C322.937 124.272 324.396 119.669 324.396 116.667C324.396 113.665 323.933 113.129 322.204 114.866C320.474 116.603 311.579 123.672 307.921 126.474C301.218 131.75 294.57 136.353 290.784 135.28C285.253 134.079 288.043 125.673 289.238 122.871C289.564 122.108 289.951 121.346 290.32 120.621C291.304 118.684 292.159 117.001 291.382 116.203C290.043 114.802 286.871 117.067 281.22 121.206C279.48 122.445 277.422 124.152 275.265 125.942C270.104 130.225 264.378 134.976 261.095 134.88C254.718 134.68 254.392 129.948 254.392 127.347V119.981C254.392 116.331 251.068 116.515 248.541 118.38C243.888 121.794 239.431 125.469 235.191 129.388C230.281 134.055 227.157 135.256 225.228 133.255C223.171 131.253 223.506 127.258 226.559 124.12C229.612 120.982 232.545 117.788 231.277 116.915C230.047 116.068 226.444 119.129 220.343 124.31L219.784 124.785C218.42 125.943 217.223 127.017 216.133 127.995L216.133 127.995C212.077 131.635 209.507 133.94 205.374 134.255C199.125 134.656 198.527 128.723 198.527 125.521V119.981C198.527 117.115 198.256 116.315 196.734 116.315C195.211 116.315 188.428 120.646 182.387 125.449C181.593 126.08 180.835 126.686 180.114 127.262L180.113 127.263C175.343 131.074 172.175 133.606 170.901 133.703C169.435 133.815 168.311 133.119 168.311 130.453C168.311 130.096 168.302 129.768 168.293 129.46C168.236 127.464 168.202 126.294 170.901 123.52C174.018 120.318 176.21 117.716 175.747 116.979C175.285 116.243 174.552 116.443 173.157 117.38C172.822 117.604 172.301 118.006 171.561 118.574L171.559 118.575L171.559 118.575C169.216 120.377 164.691 123.857 157.017 128.723C146.791 135.056 140.088 134.6 136.629 131.525C133.17 128.451 131.974 122.519 136.095 116.779C142.407 107.573 148.712 105.707 155.821 105.635C164.653 105.972 162.134 110.11 159.544 112.04C156.818 114.313 138.159 126.05 138.159 126.05C141.012 132.39 148.457 128.988 158.149 122.583C161.527 120.351 164.591 118.086 167.312 116.075L167.313 116.074L167.314 116.074L167.314 116.073C172.399 112.315 176.287 109.44 178.8 109.31C182.658 109.11 183.654 111.511 183.654 115.778C183.654 119.874 183.896 119.67 186.792 117.225L186.805 117.214C186.922 117.116 187.043 117.013 187.169 116.907C193.219 111.239 197.666 109.702 200.79 109.702C207.342 110.037 206.828 116.729 206.501 120.99L206.497 121.038C206.171 125.297 206.234 127.651 207.629 127.587C207.668 127.585 207.706 127.583 207.744 127.582C207.828 127.58 207.91 127.578 207.991 127.577C209.164 127.557 210.03 127.542 214.141 123.784C227.619 111.639 231.875 109.71 234.33 109.71C240.109 109.71 240.914 114.514 239.447 116.979C237.98 119.445 237.319 121.847 242.563 118.18C242.928 117.911 243.288 117.646 243.642 117.385L243.643 117.384L243.643 117.384C249.088 113.365 253.255 110.29 256.249 109.974C261.565 109.91 262.298 114.842 261.963 118.781C261.922 119.271 261.874 119.785 261.825 120.309V120.31C261.481 123.996 261.086 128.231 262.426 128.988C263.743 129.732 264.411 129.195 271.863 123.198C273.068 122.229 274.449 121.117 276.039 119.845C287.469 110.703 293.71 107.973 296.364 108.637C301.218 110.174 300.094 113.913 296.236 121.919C292.378 129.924 296.364 128.788 304.605 123.648C315.429 116.379 320.673 112.104 322.802 107.236C324.93 102.369 327.783 103.97 328.979 106.372C331.832 111.575 330.708 125.249 330.708 125.249ZM152.434 109.574C149.045 110.491 146.026 112.45 143.802 115.178C142.073 117.38 142.567 118.973 144.328 117.884C144.328 117.884 151.246 113.417 153.367 112.08C155.487 110.743 157.153 108.237 152.434 109.574ZM304.278 95.8293C304.985 95.8293 305.675 95.6189 306.262 95.2248C306.849 94.8307 307.307 94.2706 307.577 93.6153C307.848 92.9599 307.918 92.2388 307.78 91.5431C307.643 90.8474 307.303 90.2083 306.803 89.7067C306.304 89.2051 305.668 88.8636 304.975 88.7252C304.282 88.5868 303.564 88.6578 302.912 88.9293C302.259 89.2007 301.702 89.6604 301.309 90.2502C300.917 90.84 300.708 91.5334 300.708 92.2428C300.708 93.194 301.084 94.1062 301.753 94.7788C302.423 95.4514 303.331 95.8293 304.278 95.8293ZM284.767 19.4146C282.942 15.5958 279.902 12.4971 276.127 10.6084C275.049 12.7605 274.426 15.1135 274.297 17.5192C274.168 19.925 274.536 22.3315 275.379 24.5873C276.221 26.8432 277.519 28.8995 279.191 30.627C280.863 32.3545 282.872 33.7158 285.094 34.6252C286.799 28.8051 286.696 23.6896 284.767 19.4146Z" fill="white"/>
</svg>
