<svg width="22" height="20" viewBox="0 0 22 20" fill="none" xmlns="http://www.w3.org/2000/svg">
<path d="M21.7861 0.949856C20.8433 1.64869 19.7995 2.18318 18.6949 2.53275C18.102 1.81632 17.314 1.30853 16.4376 1.07807C15.5611 0.8476 14.6384 0.905572 13.7943 1.24414C12.9503 1.58272 12.2255 2.18555 11.718 2.97112C11.2106 3.75668 10.9449 4.68707 10.9571 5.63646V6.67103C9.22701 6.71818 7.51272 6.31495 5.96686 5.49726C4.42101 4.67957 3.09157 3.4728 2.09696 1.98443C2.09696 1.98443 -1.84086 11.2956 7.01924 15.4338C4.99178 16.8801 2.57655 17.6053 0.128052 17.503C8.98815 22.6758 19.8172 17.503 19.8172 5.60543C19.8162 5.31725 19.7899 5.02978 19.7384 4.74673C20.7431 3.70543 21.4522 2.39072 21.7861 0.949856Z" fill="#BFBFBF"/>
</svg>
